<?xml version="1.0" encoding="utf-8"?>
<svg viewBox="0 0 125 125" width="125" height="125" xmlns="http://www.w3.org/2000/svg">
  <defs>
    <style>.cls-1{fill:#ede2b2;}.cls-2{fill:#596b6a;}.cls-3{fill:#dbcf9e;}.cls-4{fill:#c8eab2;}.cls-5{fill:#cae0e0;}.cls-6{fill:#bfb073;}.cls-7{fill:none;stroke:#ede2b2;stroke-miterlimit:10;stroke-width:0.35px;}</style>
  </defs>
  <path class="cls-1" d="M 69.4 110.698 C 69.062 110.698 68.74 110.562 68.502 110.321 L 64.879 106.698 C 64.613 106.443 64.474 106.081 64.503 105.713 L 65.459 87.484 L 60.098 82.268 L 41.029 101.249 C 40.785 101.485 40.466 101.621 40.13 101.627 C 39.783 101.627 39.449 101.494 39.203 101.249 L 32.595 94.614 C 32.317 94.355 32.178 93.979 32.218 93.599 L 35.319 61.256 L 34.856 60.763 C 32.821 58.042 31.056 55.13 29.581 52.07 C 28.944 50.939 28.451 49.982 28.132 49.489 C 26.626 46.969 25.553 45.288 24.945 44.506 L 22.51 41.606 C 20.047 38.709 18.278 36.535 17.932 35.985 C 17.583 35.434 16.801 33.87 16.568 33.376 C 14.476 31.044 12.54 28.574 10.773 25.986 C 8.832 22.833 7.211 19.495 5.933 16.017 C 5.742 15.646 5.742 15.203 5.933 14.83 C 6.174 14.475 6.574 14.261 7.006 14.25 C 10.717 15.449 14.263 17.113 17.554 19.204 C 20.145 20.967 22.614 22.904 24.945 25.002 C 25.437 25.233 26.771 25.871 27.552 26.363 C 28.335 26.856 30.276 28.508 33.349 31.029 L 36.246 33.376 C 37.029 33.985 38.71 35.057 41.231 36.564 L 43.811 38.013 C 46.868 39.491 49.78 41.257 52.505 43.287 L 52.998 43.751 L 85.31 40.737 C 85.65 40.727 85.978 40.866 86.209 41.115 L 92.846 47.722 C 93.081 47.974 93.213 48.304 93.223 48.649 C 93.213 48.989 93.077 49.307 92.846 49.548 L 73.863 68.53 L 79.08 73.892 L 97.366 72.935 C 97.711 72.93 98.049 73.066 98.295 73.312 L 101.888 76.905 C 102.169 77.186 102.308 77.584 102.264 77.978 L 101.917 80.499 C 101.891 80.786 101.768 81.054 101.568 81.254 L 92.874 89.948 C 92.634 90.187 92.312 90.324 91.977 90.324 C 91.678 90.31 91.393 90.197 91.165 90.006 L 90.296 89.02 L 88.875 90.441 L 88.701 90.441 L 89.571 91.6 C 89.982 92.096 89.982 92.817 89.571 93.31 L 88.528 94.324 L 89.6 95.396 C 90.131 95.892 90.131 96.729 89.6 97.221 L 88.991 97.83 C 88.754 98.073 88.429 98.21 88.094 98.207 C 87.745 98.215 87.409 98.079 87.165 97.83 L 86.093 96.758 L 85.079 97.801 C 84.833 98.05 84.496 98.186 84.152 98.178 C 83.877 98.178 83.613 98.086 83.398 97.917 L 82.211 97.047 C 82.216 97.106 82.216 97.167 82.211 97.221 L 80.79 98.642 L 81.63 99.453 C 82.125 99.961 82.125 100.772 81.63 101.278 L 72.936 109.973 C 72.727 110.174 72.463 110.304 72.182 110.349 L 69.661 110.669 L 69.4 110.698 Z" transform="matrix(-0.707107, 0.707107, -0.707107, -0.707107, 136.412262, 68.444191)"/>
  <path class="cls-2" d="M 7.08 15.579 C 10.471 16.811 13.726 18.396 16.789 20.303 C 19.377 22.132 21.846 24.126 24.179 26.274 C 24.179 26.274 25.918 27.085 26.787 27.635 C 27.657 28.186 34.177 33.634 35.163 34.475 C 36.149 35.315 38.496 36.677 40.263 37.75 C 44.074 39.697 47.761 41.873 51.304 44.27 L 52.204 45.169 L 85.154 42.009 L 91.791 48.647 L 71.91 68.528 L 78.634 75.193 L 97.443 74.208 L 101.065 77.831 L 100.745 80.381 L 92.051 89.075 L 88.255 85.278 L 90.225 87.134 L 87.907 89.424 L 81.531 82.989 L 88.689 92.524 L 86.748 94.465 L 88.718 96.466 L 88.4 96.754 L 88.11 97.074 L 86.111 95.103 L 84.17 97.045 L 74.49 90.031 L 81.039 96.581 L 78.634 98.726 L 76.547 96.697 L 80.344 100.494 L 71.65 109.188 L 69.099 109.506 L 65.476 105.883 L 66.693 87.134 L 60.028 80.642 L 40.148 100.523 L 33.51 93.886 L 36.67 60.934 L 35.771 60.036 C 33.41 56.442 31.27 52.707 29.367 48.85 C 28.295 47.081 26.904 44.821 26.091 43.749 C 25.28 42.676 19.571 36.156 19.021 35.286 C 18.47 34.417 17.775 32.678 17.775 32.678 C 15.688 30.34 13.752 27.87 11.978 25.288 C 10.01 22.234 8.37 18.979 7.08 15.579 M 7.08 13.001 C 5.31 13.004 4.07 14.748 4.647 16.42 C 5.95 20.016 7.631 23.465 9.66 26.708 C 11.425 29.296 13.361 31.766 15.456 34.098 C 15.745 34.707 16.325 35.894 16.789 36.677 C 17.253 37.46 18.499 38.851 21.513 42.473 L 23.89 45.371 C 24.469 46.125 25.512 47.747 26.99 50.24 C 27.28 50.703 27.772 51.632 28.381 52.762 C 29.926 55.935 31.769 58.951 33.888 61.775 L 30.989 93.655 C 30.903 94.417 31.169 95.173 31.714 95.712 L 38.351 102.32 C 39.348 103.326 40.976 103.326 41.973 102.32 L 60.028 84.236 L 64.144 88.032 L 63.216 105.681 C 63.184 106.406 63.457 107.111 63.969 107.623 L 67.592 111.246 C 68.076 111.73 68.734 111.999 69.418 111.999 L 69.737 111.999 L 72.287 111.709 C 72.846 111.619 73.365 111.356 73.765 110.955 L 82.46 102.261 C 83.288 101.441 83.454 100.166 82.865 99.161 C 83.271 99.39 83.732 99.511 84.198 99.508 C 84.885 99.523 85.545 99.251 86.024 98.755 L 86.197 98.928 C 87.194 99.935 88.823 99.935 89.82 98.928 L 90.225 98.726 L 90.545 98.407 C 91.55 97.41 91.55 95.781 90.545 94.785 L 90.225 94.465 C 91.083 93.637 91.252 92.324 90.631 91.306 C 91.018 91.536 91.458 91.655 91.906 91.655 C 92.589 91.643 93.24 91.373 93.732 90.901 L 102.426 82.206 C 102.826 81.807 103.091 81.288 103.181 80.729 L 103.47 78.178 C 103.586 77.391 103.317 76.59 102.746 76.033 L 99.124 72.411 C 98.633 71.937 97.981 71.667 97.297 71.658 L 79.532 72.643 L 75.736 68.528 L 93.819 50.443 C 94.826 49.446 94.826 47.818 93.819 46.82 L 87.067 40.184 C 86.583 39.7 85.925 39.431 85.241 39.431 L 85.01 39.431 L 53.276 42.329 C 50.452 40.21 47.436 38.366 44.263 36.822 C 43.133 36.214 42.204 35.721 41.742 35.431 C 39.248 33.953 37.626 32.909 36.872 32.331 L 33.974 29.954 C 30.381 27.056 28.787 25.608 28.178 25.23 C 27.57 24.853 26.209 24.187 25.599 23.898 C 23.267 21.802 20.797 19.866 18.21 18.1 C 14.964 16.092 11.514 14.431 7.921 13.146 C 7.643 13.102 7.358 13.102 7.08 13.146 L 7.08 13.001 Z" transform="matrix(-0.707107, 0.707107, -0.707107, -0.707107, 136.378311, 68.510254)"/>
  <path class="cls-3" d="M 59.295 29.69 L 58.397 28.792 C 54.85 26.436 51.163 24.297 47.355 22.388 L 46.225 21.721 C 46.838 24.499 46.752 27.389 45.964 30.124 C 43.628 32.719 41.089 35.121 38.371 37.312 C 39.618 39.848 41.089 42.262 42.776 44.527 L 43.675 45.427 L 40.515 78.263 L 47.152 84.899 L 52.949 79.104 C 52.073 76.834 51.754 74.391 52.02 71.973 C 52.89 65.801 59.904 63.28 63.41 59.86 C 66.917 56.44 69.844 43.977 70.22 34.646 C 70.232 32.689 69.986 30.743 69.496 28.849 L 59.295 29.69 Z" transform="matrix(-0.707107, 0.707107, -0.707107, -0.707107, 130.384445, 52.612999)"/>
  <path class="cls-4" d="M 43.639 85.733 L 34.134 86.631 C 34.076 87.17 34.076 87.715 34.134 88.254 C 34.957 92.166 36.983 95.725 39.931 98.427 C 40.394 98.803 41.438 99.499 42.539 100.223 L 50.421 92.369 L 43.639 85.733 Z" transform="matrix(-0.707107, 0.707107, -0.707107, -0.707107, 137.880447, 128.844055)"/>
  <path class="cls-3" d="M 18.971 68.29 L 20.13 64.812 L 18.711 63.16 L 21.03 60.813 L 22.855 62.552 L 31.548 53.858 L 31.868 51.278 L 27.926 47.076 L 8.771 48.089 L 4.366 43.801 C 3.565 44.598 2.881 45.505 2.336 46.496 C 0.481 50.061 1.612 56.117 -0.735 59.682 C -1.46 60.783 -2.765 61.392 -3.633 62.581 L -4.503 79.099 L -0.243 83.388 L 2.336 83.069 L 11.436 73.912 L 9.697 72.114 L 11.697 70.173 L 13.928 72.086 L 17.204 70.318 L 18.711 70.811 L 19.029 70.491 L 19.349 70.173 L 18.971 68.29 Z" transform="matrix(-0.707107, 0.707107, -0.707107, -0.707107, 68.325592, 98.887611)"/>
  <path class="cls-5" d="M 115.006 61.028 C 111.943 59.118 108.691 57.536 105.299 56.304 C 106.533 59.695 108.115 62.949 110.023 66.012 C 110.632 66.912 111.298 67.838 111.993 68.737 L 117.79 62.941 C 116.832 62.304 115.992 61.636 115.006 61.028 Z" transform="matrix(-0.707107, 0.707107, -0.707107, -0.707107, 234.627045, 27.855295)"/>
  <polyline class="cls-2" points="18.989 66.536 21.858 63.638 13.569 54.857 6.672 61.754 15.396 70.101 18.352 67.174" transform="matrix(-0.707107, 0.707107, -0.707107, -0.707107, 68.531204, 96.571442)"/>
  <path class="cls-6" d="M 56.423 81.16 L 55.844 81.768 L 44.252 70.031 C 41.831 68.802 39.556 67.304 37.47 65.568 L 17.995 46.267 L 14.342 42.615 L 19.356 37.602 L 23.008 41.254 L 42.31 60.7 C 44.063 62.85 45.595 65.171 46.888 67.626 L 58.48 79.218 L 57.871 79.826 L 64.335 86.26 L 62.972 87.623 L 56.423 81.16 Z" transform="matrix(-0.707107, 0.707107, -0.707107, -0.707107, 111.428741, 79.069702)"/>
  <path class="cls-1" d="M 19.429 38.225 L 22.733 41.529 L 42.005 60.975 C 43.727 63.079 45.231 65.351 46.497 67.756 L 57.829 79.117 L 57.249 79.726 L 61.742 84.189 L 63.712 86.188 L 63.392 86.479 L 63.103 86.797 L 61.103 84.827 L 56.67 80.335 L 56.061 80.914 L 44.7 69.583 C 42.296 68.316 40.023 66.808 37.919 65.091 L 18.473 45.818 L 15.168 42.514 L 17.313 40.37 L 19.459 38.225 M 19.459 36.776 L 18.734 37.501 L 16.589 39.644 L 14.445 41.789 L 13.72 42.514 L 14.445 43.239 L 17.748 46.542 L 37.194 65.814 C 39.327 67.585 41.64 69.13 44.092 70.423 L 55.336 81.668 L 56.061 82.392 L 56.67 81.784 L 60.379 85.55 L 62.349 87.522 L 63.103 88.246 L 63.827 87.522 L 64.118 87.203 L 64.436 86.914 L 65.161 86.188 L 64.436 85.55 L 62.466 83.465 L 58.698 79.755 L 59.306 79.146 L 58.582 78.422 L 47.337 67.177 C 46.048 64.721 44.504 62.41 42.73 60.279 L 23.457 40.833 L 20.154 37.501 L 19.429 36.776 L 19.459 36.776 Z" transform="matrix(-0.707107, 0.707107, -0.707107, -0.707107, 111.531097, 78.82431)"/>
  <path class="cls-2" d="M 99.627 64.961 L 94.729 60.063 C 92.71 58.278 90.432 56.802 87.977 55.687 L 86.934 56.556 L 85.978 57.513 C 87.114 60.002 88.618 62.308 90.441 64.352 L 95.338 69.249 L 99.627 64.961 Z" transform="matrix(-0.707107, 0.707107, -0.707107, -0.707107, 202.595322, 41.018272)"/>
  <path class="cls-2" d="M 70.711 59.301 L 81.288 69.878 C 83.868 70.602 86.261 68.265 85.6 65.67 C 85.594 65.645 85.587 65.616 85.578 65.59 L 75.058 54.953 L 70.711 59.301 Z" transform="matrix(-0.707107, 0.707107, -0.707107, -0.707107, 177.69635, 51.360249)"/>
  <path class="cls-7" d="M 68.154 64.906 C 69.563 65.401 71.131 64.974 72.096 63.834 C 73.238 62.868 73.664 61.3 73.168 59.892" transform="matrix(-0.707107, 0.707107, -0.707107, -0.707107, 164.994995, 56.65839)"/>
  <path class="cls-7" d="M 68.154 64.906 C 69.563 65.401 71.131 64.974 72.096 63.834 C 73.238 62.868 73.664 61.3 73.168 59.892" transform="matrix(-0.707107, 0.707107, -0.707107, -0.707107, 164.994995, 56.65839)"/>
  <path class="cls-2" d="M 7.08 15.579 C 10.471 16.811 13.726 18.396 16.789 20.303 C 19.377 22.132 21.846 24.126 24.179 26.274 C 24.179 26.274 25.918 27.085 26.787 27.635 C 27.657 28.186 34.177 33.634 35.163 34.475 C 36.149 35.315 38.496 36.677 40.263 37.75 C 44.074 39.697 47.761 41.873 51.304 44.27 L 52.204 45.169 L 85.154 42.009 L 91.791 48.647 L 71.91 68.528 L 78.634 75.193 L 97.443 74.208 L 101.065 77.831 L 100.745 80.381 L 92.051 89.075 L 90.225 87.134 L 87.907 89.424 L 81.531 82.989 L 88.689 92.524 L 86.748 94.465 L 88.718 96.466 L 88.4 96.754 L 88.11 97.074 L 86.111 95.103 L 84.17 97.045 L 74.49 90.031 L 81.039 96.581 L 78.634 98.726 L 80.344 100.494 L 71.65 109.188 L 69.099 109.506 L 65.476 105.883 L 66.693 87.134 L 60.028 80.642 L 40.148 100.523 L 33.51 93.886 L 36.67 60.934 L 35.771 60.036 C 33.41 56.442 31.27 52.707 29.367 48.85 C 28.295 47.081 26.904 44.821 26.091 43.749 C 25.28 42.676 19.571 36.156 19.021 35.286 C 18.47 34.417 17.775 32.678 17.775 32.678 C 15.688 30.34 13.752 27.87 11.978 25.288 C 10.01 22.234 8.37 18.979 7.08 15.579 M 7.08 13.001 C 5.31 13.004 4.07 14.748 4.647 16.42 C 5.95 20.016 7.631 23.465 9.66 26.708 C 11.425 29.296 13.361 31.766 15.456 34.098 C 15.745 34.707 16.325 35.894 16.789 36.677 C 17.253 37.46 18.499 38.851 21.513 42.473 L 23.89 45.371 C 24.469 46.125 25.512 47.747 26.99 50.24 C 27.28 50.703 27.772 51.632 28.381 52.762 C 29.926 55.935 31.769 58.951 33.888 61.775 L 30.989 93.655 C 30.903 94.417 31.169 95.173 31.714 95.712 L 38.351 102.32 C 39.348 103.326 40.976 103.326 41.973 102.32 L 60.028 84.236 L 64.144 88.032 L 63.216 105.681 C 63.184 106.406 63.457 107.111 63.969 107.623 L 67.592 111.246 C 68.076 111.73 68.734 111.999 69.418 111.999 L 69.737 111.999 L 72.287 111.709 C 72.846 111.619 73.365 111.356 73.765 110.955 L 82.46 102.261 C 83.288 101.441 83.454 100.166 82.865 99.161 C 83.271 99.39 83.732 99.511 84.198 99.508 C 84.885 99.523 85.545 99.251 86.024 98.755 L 86.197 98.928 C 87.194 99.935 88.823 99.935 89.82 98.928 L 90.225 98.726 L 90.545 98.407 C 91.55 97.41 91.55 95.781 90.545 94.785 L 90.225 94.465 C 91.083 93.637 91.252 92.324 90.631 91.306 C 91.018 91.536 91.458 91.655 91.906 91.655 C 92.591 91.648 93.246 91.38 93.732 90.901 L 102.426 82.206 C 102.826 81.807 103.091 81.288 103.181 80.729 L 103.47 78.178 C 103.586 77.391 103.317 76.59 102.746 76.033 L 99.124 72.411 C 98.633 71.937 97.981 71.667 97.297 71.658 L 79.532 72.643 L 75.736 68.528 L 93.819 50.443 C 94.826 49.446 94.826 47.818 93.819 46.82 L 87.067 40.184 C 86.583 39.7 85.925 39.431 85.241 39.431 L 85.01 39.431 L 53.276 42.329 C 50.452 40.21 47.436 38.366 44.263 36.822 C 43.133 36.214 42.204 35.721 41.742 35.431 C 39.248 33.953 37.626 32.909 36.872 32.331 L 33.974 29.954 C 30.381 27.056 28.787 25.608 28.178 25.23 C 27.57 24.853 26.209 24.187 25.599 23.898 C 23.267 21.802 20.797 19.866 18.21 18.1 C 14.964 16.092 11.514 14.431 7.921 13.146 C 7.643 13.102 7.358 13.102 7.08 13.146 L 7.08 13.001 Z" transform="matrix(-0.707107, 0.707107, -0.707107, -0.707107, 136.378311, 68.510254)"/>
  <rect class="cls-2" x="29.27" y="72.742" width="1.275" height="23.388" transform="matrix(0, 1, -1, 0, 129.310867, -5.965161)"/>
  <rect class="cls-2" x="83.783" y="18.2" width="1.275" height="23.388" transform="matrix(0, 1, -1, 0, 74.780739, 16.63789)"/>
</svg>