<?xml version="1.0" encoding="utf-8"?>
<svg viewBox="0 0 150 150" width="150" height="150" xmlns="http://www.w3.org/2000/svg">
  <defs>
    <style>.cls-1{fill:#ede2b2;}.cls-2{fill:#596b6a;}.cls-3{fill:#dbcf9e;}.cls-4{fill:#c8eab2;}</style>
  </defs>
  <path class="cls-1" d="M 92.364 132.043 C 91.181 131.967 90.099 131.356 89.424 130.386 C 88.376 129.138 86.654 127.009 87.802 125.015 C 88.444 123.9 95.64 112.413 97.937 108.832 C 95.14 106.723 92.455 104.467 89.897 102.074 L 74.052 86.23 L 66.518 93.765 L 27.598 123.597 C 27.368 123.778 27.081 123.876 26.788 123.866 C 26.568 123.934 26.332 123.934 26.112 123.866 C 23.754 122.582 21.496 121.126 19.355 119.508 C 17.891 118.139 18.109 115.761 19.795 114.676 C 20.031 114.204 26.551 107.041 39.423 93.529 L 39.017 93.122 C 38.071 92.177 33.308 87.345 33.308 84.811 C 33.287 83.762 34.146 82.898 35.2 82.92 C 37.734 82.92 42.565 87.615 43.511 88.562 L 43.747 88.832 L 51.585 80.486 C 49.974 78.913 48.528 77.179 47.26 75.317 C 46.282 73.831 45.302 71.938 46.484 70.823 C 46.834 70.459 47.328 70.259 47.836 70.283 C 50.302 70.283 54.863 74.675 56.045 75.824 L 59.154 72.682 C 57.464 70.945 55.97 69.03 54.693 66.972 L 40.403 52.614 C 36.761 49.08 34.207 44.579 33.037 39.641 C 32.778 38.698 32.403 37.789 31.923 36.938 C 31.52 36.194 31.193 35.414 30.943 34.607 C 30.612 33.387 30.99 32.084 31.923 31.228 C 32.568 30.549 33.453 30.148 34.389 30.113 C 34.655 30.083 34.93 30.083 35.2 30.113 C 36.004 30.366 36.788 30.694 37.531 31.094 C 38.382 31.576 39.291 31.948 40.233 32.207 C 45.197 33.451 49.697 36.09 53.207 39.81 L 67.566 54.168 C 69.623 55.445 71.535 56.941 73.276 58.628 L 76.383 55.519 C 74.836 53.976 73.433 52.289 72.194 50.485 C 71.214 48.999 70.233 47.107 71.416 45.958 C 71.778 45.614 72.268 45.431 72.768 45.452 C 75.302 45.452 80.132 50.114 81.046 51.06 L 89.424 43.222 L 89.154 42.85 C 87.552 41.279 86.106 39.559 84.83 37.714 C 83.85 36.228 82.869 34.336 84.052 33.188 C 84.411 32.832 84.897 32.636 85.404 32.647 C 87.937 32.647 92.768 37.344 93.714 38.29 L 94.12 38.695 C 112.431 21.634 114.965 19.201 115.269 19.201 C 115.912 18.461 116.801 17.981 117.769 17.849 C 118.596 17.877 119.381 18.241 119.931 18.863 C 121.56 20.994 123.019 23.255 124.289 25.62 C 124.594 26.069 124.594 26.66 124.289 27.106 L 94.493 65.755 L 86.823 73.424 L 102.667 89.271 C 105.06 91.832 107.313 94.514 109.425 97.312 C 113.006 95.049 124.493 87.852 125.606 87.177 C 126.053 86.937 126.553 86.808 127.059 86.805 C 128.492 86.981 129.827 87.635 130.844 88.663 C 131.796 89.309 132.435 90.329 132.6 91.467 C 132.698 92.251 132.452 93.041 131.925 93.63 C 131.249 94.44 122.229 106.738 118.649 111.67 L 118.649 112.043 C 120.279 113.734 120.424 116.367 118.986 118.224 C 118.327 118.917 117.404 119.298 116.451 119.272 C 115.137 119.174 113.881 118.69 112.836 117.887 L 112.431 117.887 C 107.364 121.636 95.066 130.691 94.12 131.333 C 93.629 131.762 93.012 132.012 92.364 132.043 Z" transform="matrix(-0.707107, 0.707107, -0.707107, -0.707107, 181.883118, 74.553551)"/>
  <path class="cls-2" d="M 117.844 19.339 C 118.316 19.366 118.756 19.587 119.059 19.947 C 120.57 21.991 121.958 24.122 123.215 26.332 L 93.485 65.084 L 85.005 73.564 L 101.897 90.456 C 104.509 93.274 106.964 96.23 109.262 99.309 C 109.262 99.309 125.141 89.342 126.425 88.599 C 126.675 88.467 126.952 88.399 127.236 88.395 C 128.414 88.619 129.488 89.211 130.31 90.085 C 131.324 90.896 131.897 92.012 131.052 93.024 C 130.209 94.038 117.539 111.302 117.539 111.302 L 117.168 112.585 C 117.168 112.585 119.871 115.66 118.046 117.517 C 117.631 117.943 117.053 118.176 116.458 118.16 C 115.205 118.008 114.025 117.477 113.08 116.64 L 111.796 117.012 C 111.796 117.012 94.532 129.646 93.519 130.526 C 93.225 130.775 92.856 130.916 92.471 130.93 C 91.701 130.843 91.012 130.425 90.579 129.782 C 89.734 128.768 88.349 127.214 89.093 125.896 C 89.835 124.578 99.802 108.734 99.802 108.734 C 96.675 106.41 93.674 103.916 90.816 101.268 L 73.923 84.376 L 65.443 92.856 L 26.862 122.687 C 24.652 121.43 22.521 120.042 20.477 118.532 C 19.396 117.416 19.936 116.673 20.78 115.66 C 21.625 114.646 31.862 103.802 41.355 93.667 L 40.139 92.315 C 36.761 88.734 34.295 85.288 35.037 84.544 C 35.166 84.491 35.314 84.491 35.443 84.544 C 38.308 85.629 40.845 87.43 42.807 89.781 L 44.024 91.031 L 53.653 80.592 L 52.706 79.646 C 49.126 76.098 46.896 72.651 47.572 71.907 C 47.701 71.854 47.849 71.854 47.978 71.907 C 50.842 72.992 53.38 74.793 55.342 77.146 L 56.187 77.991 L 61.186 73.023 C 59.154 71.077 57.379 68.873 55.917 66.469 L 41.422 51.806 C 38.001 48.472 35.578 44.248 34.43 39.61 C 33.923 37.616 32.74 36.231 32.302 34.509 C 32.157 33.8 32.4 33.062 32.943 32.583 C 33.342 32.164 33.886 31.91 34.463 31.873 L 34.869 31.873 C 36.423 32.312 37.977 33.494 39.97 34.002 C 44.67 35.121 48.957 37.546 52.336 40.996 L 66.829 55.489 C 69.234 56.952 71.437 58.725 73.383 60.76 L 78.349 55.759 L 77.505 54.915 C 73.957 51.368 71.661 47.887 72.403 47.144 C 72.535 47.104 72.677 47.104 72.809 47.144 C 75.651 48.253 78.17 50.053 80.141 52.381 L 81.086 53.326 L 91.391 43.63 L 90.141 42.415 C 86.761 39.035 84.296 35.387 85.039 34.644 C 85.168 34.589 85.316 34.589 85.444 34.644 C 88.293 35.644 90.836 37.353 92.844 39.61 L 94.162 40.928 C 104.297 31.435 115.648 20.656 116.188 20.353 C 116.611 19.836 117.191 19.481 117.844 19.339 M 117.844 16.636 C 116.571 16.708 115.363 17.251 114.465 18.158 C 114.229 18.326 113.722 18.732 94.195 37.076 C 91.863 34.812 88.079 31.57 85.477 31.57 C 84.616 31.559 83.786 31.901 83.181 32.516 C 82.403 33.292 80.073 35.59 87.539 43.326 L 81.153 49.34 C 78.961 46.84 76.066 45.064 72.843 44.239 C 71.984 44.209 71.15 44.539 70.545 45.151 C 68.416 47.246 70.545 50.353 71.119 51.368 C 72.134 52.874 73.261 54.296 74.498 55.625 L 73.214 56.908 C 71.762 55.499 70.177 54.232 68.485 53.124 L 54.227 39.002 C 50.542 35.207 45.856 32.535 40.713 31.299 C 39.862 31.035 39.038 30.694 38.247 30.286 C 37.446 29.829 36.595 29.467 35.713 29.204 C 35.336 29.066 34.933 28.998 34.531 29.001 C 33.251 29.053 32.041 29.599 31.152 30.522 C 29.883 31.68 29.372 33.458 29.835 35.117 C 30.098 35.998 30.46 36.85 30.916 37.65 C 31.325 38.441 31.666 39.265 31.93 40.117 C 33.166 45.259 35.838 49.945 39.632 53.63 L 53.653 67.956 C 54.714 69.678 55.934 71.296 57.302 72.787 L 56.018 74.07 C 53.866 71.61 51.015 69.863 47.843 69.069 C 46.985 69.084 46.163 69.422 45.544 70.016 C 44.768 70.76 42.504 73.057 49.734 80.625 L 43.856 86.909 C 41.524 84.645 37.875 81.571 35.342 81.571 C 34.481 81.561 33.649 81.902 33.044 82.517 C 30.95 84.612 33.044 87.685 33.653 88.7 C 34.801 90.495 36.136 92.16 37.639 93.667 C 19.26 113.227 18.855 113.734 18.686 113.937 C 16.781 115.666 16.781 118.66 18.686 120.389 C 20.865 122.11 23.179 123.647 25.611 124.985 C 26.024 125.215 26.491 125.332 26.963 125.322 C 27.548 125.329 28.121 125.139 28.584 124.783 L 67.167 95.086 L 67.404 94.85 L 74.159 88.092 L 89.059 102.991 C 91.343 105.163 93.745 107.203 96.255 109.107 C 93.452 113.566 87.404 123.26 86.795 124.309 C 85.819 126.667 86.458 129.387 88.383 131.065 L 88.383 131.235 C 89.327 132.509 90.788 133.288 92.37 133.364 C 93.371 133.349 94.336 132.991 95.107 132.349 C 95.85 131.741 105.716 124.477 112.606 119.444 C 113.719 120.16 115.003 120.569 116.323 120.627 C 117.597 120.609 118.814 120.085 119.701 119.174 C 121.509 117.153 121.624 114.13 119.973 111.978 C 125.04 105.221 132.269 95.086 132.878 94.477 C 134.57 92.335 134.053 89.202 131.762 87.721 L 131.594 87.721 C 130.344 86.49 128.711 85.727 126.966 85.557 C 126.218 85.562 125.486 85.758 124.837 86.132 C 123.789 86.74 114.092 92.889 109.633 95.592 C 107.732 93.081 105.691 90.68 103.519 88.395 L 88.789 73.564 L 95.545 66.975 L 95.783 66.739 L 125.514 27.954 C 126.17 27.092 126.249 25.924 125.716 24.982 C 124.37 22.61 122.833 20.35 121.12 18.225 C 120.317 17.235 119.117 16.654 117.844 16.636 Z" transform="matrix(-0.707107, 0.707107, -0.707107, -0.707107, 182.033249, 74.599358)"/>
  <path class="cls-3" d="M 107.356 45.845 C 105.41 43.807 103.209 42.036 100.803 40.573 L 86.31 26.08 C 85.424 25.191 84.475 24.367 83.472 23.614 C 83.43 24.38 83.222 25.127 82.863 25.809 C 79.933 29.069 76.772 32.12 73.403 34.931 C 73.977 35.64 74.653 36.383 75.396 37.161 L 89.89 51.656 C 91.352 54.062 93.127 56.263 95.161 58.209 L 90.16 63.176 L 89.316 62.331 C 85.768 58.581 82.289 56.352 81.545 57.095 C 80.803 57.838 83.099 61.283 86.647 64.831 L 87.592 65.778 L 77.897 76.081 L 76.681 74.831 C 73.301 71.454 69.653 68.987 68.909 69.729 C 68.167 70.473 70.463 73.919 74.113 77.5 L 75.43 78.818 C 72.525 81.892 69.518 85.102 66.748 88.108 L 74.45 97.501 L 91.005 84.797 C 90.404 82.598 90.231 80.305 90.498 78.041 C 91.579 70.338 100.329 67.332 104.687 62.94 C 108.066 59.561 110.769 50.405 112.222 41.079 L 107.356 45.845 Z" transform="matrix(-0.707107, 0.707107, -0.707107, -0.707107, 195.58107, 40.102669)"/>
  <path class="cls-3" d="M 95.643 91.472 C 92.603 88.702 89.933 87.081 89.292 87.689 C 88.65 88.297 90.847 91.913 94.395 95.46 L 95.07 96.102 C 95.272 94.546 95.474 92.992 95.643 91.472 Z" transform="matrix(-0.707107, 0.707107, -0.707107, -0.707107, 222.691971, 91.4217)"/>
  <path class="cls-4" d="M 83.525 108.209 L 82.41 108.209 C 78.323 111.994 72.951 117.062 67.782 121.893 C 68.836 126.447 71.183 130.598 74.538 133.851 C 74.809 134.055 75.18 134.359 75.654 134.662 L 90.046 115.879 L 83.525 108.209 Z" transform="matrix(-0.707107, 0.707107, -0.707107, -0.707107, 220.582489, 151.502747)"/>
  <path class="cls-3" d="M 48.984 90.277 L 58.814 68.857 C 55.943 70.58 41.924 79.296 41.924 79.296 C 39.672 76.189 37.26 73.199 34.693 70.344 L 21.956 57.574 C 20.943 61.898 21.45 67.54 19.085 71.087 L 16.957 74.297 L 23.713 81.053 C 26.531 83.666 29.484 86.124 32.565 88.419 L 25.403 100.278 L 48.984 90.277 Z" transform="matrix(-0.707107, 0.707107, -0.707107, -0.707107, 120.483704, 107.946014)"/>
  <path class="cls-2" d="M 95.13 41.821 L 97.799 39.152 C 95.603 37.598 93.914 36.854 93.374 37.395 C 92.833 37.935 93.576 39.625 95.13 41.821 Z" transform="matrix(-0.707107, 0.707107, -0.707107, -0.707107, 190.971451, -0.062504)"/>
  <path class="cls-2" d="M 95.168 59.747 L 97.904 57.043 C 95.64 55.422 93.917 54.679 93.377 55.254 C 92.836 55.828 93.444 57.483 95.168 59.747 Z" transform="matrix(-0.707107, 0.707107, -0.707107, -0.707107, 203.695877, 30.434429)"/>
  <path class="cls-2" d="M 97.6 110.115 L 95.099 112.581 C 93.647 110.519 92.937 108.932 93.444 108.425 C 93.951 107.92 95.539 108.629 97.6 110.115 Z" transform="matrix(-0.707107, 0.707107, -0.707107, -0.707107, 241.00737, 121.015755)"/>
  <path class="cls-2" d="M 97.738 92.188 L 95.137 94.791 C 93.582 92.629 92.872 90.973 93.38 90.466 C 93.887 89.958 95.508 90.635 97.738 92.188 Z" transform="matrix(-0.707107, 0.707107, -0.707107, -0.707107, 228.430115, 90.471642)"/>
  <path class="cls-2" d="M 136.571 73.106 C 135.124 72.352 133.635 71.687 132.11 71.111 C 131.212 70.912 130.276 71.224 129.678 71.923 C 128.992 72.53 128.685 73.456 128.867 74.355 C 129.485 75.865 130.185 77.342 130.963 78.781 C 131.32 77.369 132.054 76.084 133.09 75.065 C 134.07 74.135 135.266 73.463 136.571 73.106 Z" transform="matrix(-0.707107, 0.707107, -0.707107, -0.707107, 279.495453, 34.062119)"/>
  <polygon class="cls-2" points="129.722 71.77 131.108 72.615 131.005 73.493 129.586 72.615 129.722 71.77" transform="matrix(-0.707107, 0.707107, -0.707107, -0.707107, 273.874481, 31.820473)"/>
  <polygon class="cls-2" points="129.303 74.67 128.627 75.345 129.404 75.953 129.979 75.345 130.587 74.771 129.979 73.994 129.303 74.67" transform="matrix(-0.707107, 0.707107, -0.707107, -0.707107, 274.267273, 36.341785)"/>
  <polygon class="cls-2" points="128.885 72.649 129.695 73.29 129.594 74.169 128.682 74.102 128.885 72.649" transform="matrix(-0.707107, 0.707107, -0.707107, -0.707107, 272.446564, 33.966934)"/>
  <path class="cls-2" d="M 125.937 72.73 C 126.08 73.081 126.249 73.422 126.445 73.744 L 126.782 73.406 C 126.313 72.551 126.114 71.574 126.209 70.602 L 125.668 70.602 C 125.685 70.669 125.685 70.741 125.668 70.804 C 125.621 71.46 125.713 72.116 125.937 72.73 Z" transform="matrix(-0.707107, 0.707107, -0.707107, -0.707107, 266.503357, 33.956692)"/>
  <path class="cls-2" d="M 126.908 71.693 C 126.63 70.983 126.526 70.22 126.605 69.463 C 126.587 69.395 126.587 69.325 126.605 69.26 L 125.691 69.463 C 125.705 70.088 125.783 70.71 125.928 71.322 C 126.137 72.085 126.479 72.804 126.942 73.45 L 127.482 72.842 C 127.246 72.48 127.053 72.095 126.908 71.693 Z" transform="matrix(-0.707107, 0.707107, -0.707107, -0.707107, 266.552277, 32.30043)"/>
  <polygon class="cls-2" points="129.485 76.689 130.329 78.074 131.209 77.973 130.329 76.554 129.485 76.689" transform="matrix(-0.707107, 0.707107, -0.707107, -0.707107, 277.185486, 39.814007)"/>
  <polygon class="cls-2" points="128.428 76.233 129.07 77.045 129.948 76.943 129.881 76.03 128.428 76.233" transform="matrix(-0.707107, 0.707107, -0.707107, -0.707107, 274.657898, 39.307976)"/>
  <path class="cls-2" d="M 126.776 77.49 C 127.127 77.632 127.466 77.801 127.791 77.997 L 127.451 78.335 C 126.596 77.869 125.621 77.666 124.647 77.761 L 124.647 77.219 L 124.85 77.219 C 125.505 77.172 126.161 77.267 126.776 77.49 Z" transform="matrix(-0.707107, 0.707107, -0.707107, -0.707107, 270.461823, 43.513317)"/>
  <path class="cls-2" d="M 126.749 78.984 C 126.044 78.71 125.275 78.605 124.519 78.68 L 124.519 77.767 C 125.147 77.783 125.769 77.862 126.378 78.004 C 127.141 78.216 127.864 78.558 128.506 79.017 L 127.898 79.558 C 127.539 79.325 127.154 79.132 126.749 78.984 Z" transform="matrix(-0.707107, 0.707107, -0.707107, -0.707107, 271.59314, 44.827438)"/>
  <rect class="cls-2" x="13.175" y="73.007" width="13.446" height="0.845" transform="matrix(0, 1, -1, 0, 168.929291, 19.597427)"/>
  <rect class="cls-2" x="25.811" y="60.374" width="13.446" height="0.845" transform="matrix(0, 1, -1, 0, 156.268005, 24.853058)"/>
  <rect class="cls-2" x="50.677" y="35.508" width="13.446" height="0.845" transform="matrix(0, 1, -1, 0, 131.423203, 35.12542)"/>
  <rect class="cls-2" x="63.313" y="22.872" width="13.446" height="0.845" transform="matrix(0, 1, -1, 0, 118.785812, 40.357155)"/>
</svg>