<?xml version="1.0" encoding="utf-8"?>
<svg viewBox="0 0 150 150" width="150" height="150" xmlns="http://www.w3.org/2000/svg">
  <defs>
    <style>.cls-1{fill:#f2f2f2;}.cls-2{fill:#596b6a;}.cls-3{fill:#a8c1c0;}</style>
  </defs>
  <path class="cls-1" d="M 25.579 133.659 C 25.21 133.652 24.853 133.512 24.576 133.265 L 22.751 131.403 L 18.634 124.495 C 18.509 124.208 18.509 123.883 18.634 123.599 L 28.944 52.468 L 12.727 36.287 C 7.641 31.401 4.62 24.754 4.28 17.708 C 4.261 16.942 4.877 16.311 5.64 16.311 C 12.699 16.641 19.361 19.663 24.255 24.76 L 40.435 40.977 L 111.566 30.488 L 111.745 30.488 C 112.004 30.485 112.251 30.56 112.462 30.702 L 119.085 34.604 C 119.203 34.644 119.302 34.719 119.37 34.82 L 121.232 36.646 C 121.687 37.115 121.776 37.83 121.447 38.4 C 121.189 38.822 120.727 39.077 120.229 39.08 L 119.8 39.08 L 115.183 37.397 L 100.541 42.553 L 101.006 43.591 C 101.193 44.11 101.067 44.693 100.684 45.093 C 100.409 45.341 100.054 45.48 99.682 45.488 L 99.18 45.488 C 98.25 45.075 97.362 44.571 96.532 43.984 L 85.792 47.564 L 86.15 48.352 C 86.469 49.268 85.796 50.227 84.825 50.249 C 84.661 50.281 84.492 50.281 84.324 50.249 C 83.608 49.962 82.925 49.601 82.283 49.175 L 74.05 53.757 C 74.552 54.652 74.802 55.297 74.837 55.332 C 75.006 55.854 74.884 56.428 74.515 56.836 C 74.254 57.108 73.892 57.262 73.514 57.265 C 73.348 57.301 73.177 57.301 73.012 57.265 C 72.253 56.947 71.522 56.564 70.829 56.12 L 62.343 63.279 C 63.454 64.604 64.348 65.821 65.136 66.859 L 67.141 64.747 L 67.678 64.21 L 69.754 62.206 C 70.02 61.965 70.366 61.836 70.721 61.847 C 70.932 61.794 71.154 61.794 71.365 61.847 C 74.505 63.519 77.404 65.599 79.993 68.04 C 83.129 71.656 85.91 75.562 88.298 79.711 C 88.634 80.262 88.545 80.975 88.083 81.429 L 84.504 85.009 C 84.245 85.26 83.898 85.399 83.537 85.403 L 83.358 85.403 L 82.964 86.799 C 84.071 88.149 85.029 89.613 85.827 91.167 C 89.981 90.844 106.125 89.484 107.593 89.412 C 111.173 89.412 115.684 93.887 116.185 94.424 C 116.518 94.764 116.65 95.247 116.543 95.713 C 116.428 96.185 116.077 96.565 115.612 96.716 L 94.563 103.875 L 95.314 105.45 C 95.565 105.994 95.454 106.634 95.028 107.061 C 94.774 107.344 94.409 107.501 94.026 107.49 C 93.825 107.523 93.621 107.523 93.417 107.49 L 91.842 106.702 L 84.683 127.788 C 84.535 128.249 84.156 128.604 83.68 128.718 L 83.358 128.718 C 83 128.715 82.653 128.576 82.391 128.325 C 81.496 127.501 77.129 123.135 77.379 119.733 C 77.379 118.266 78.811 102.12 79.134 97.968 C 77.58 97.173 76.116 96.213 74.766 95.104 L 73.37 95.498 C 73.409 95.917 73.267 96.336 72.976 96.643 L 69.396 100.223 C 69.136 100.495 68.773 100.649 68.394 100.653 C 68.139 100.653 67.892 100.578 67.678 100.439 C 63.532 98.047 59.624 95.268 56.008 92.132 C 53.556 89.555 51.473 86.652 49.815 83.505 C 49.546 82.975 49.632 82.335 50.03 81.895 L 52.07 79.782 L 52.571 79.282 L 54.683 77.277 C 53.574 76.489 52.357 75.594 51.103 74.484 L 43.944 82.968 C 44.413 83.645 44.8 84.379 45.09 85.152 C 45.294 85.671 45.168 86.262 44.767 86.656 C 44.495 86.907 44.137 87.049 43.765 87.049 L 43.264 87.049 C 43.264 87.049 42.584 86.763 41.689 86.262 L 36.999 94.567 C 37.428 95.208 37.79 95.892 38.073 96.608 C 38.287 97.127 38.158 97.724 37.75 98.111 C 37.486 98.369 37.125 98.512 36.748 98.505 C 36.598 98.537 36.437 98.537 36.283 98.505 C 36.011 98.412 35.745 98.293 35.495 98.147 L 31.916 108.886 C 32.506 109.717 33.007 110.604 33.419 111.535 C 33.612 112.054 33.487 112.641 33.097 113.039 C 32.821 113.286 32.467 113.425 32.095 113.433 C 31.929 113.468 31.758 113.468 31.593 113.433 L 30.52 112.573 L 25.364 127.215 L 26.797 131.833 C 26.982 132.456 26.735 133.125 26.188 133.48 C 26.002 133.584 25.794 133.644 25.579 133.659 Z" transform="matrix(-0.707107, 0.707107, -0.707107, -0.707107, 160.505325, 83.486511)"/>
  <path class="cls-2" d="M 5.726 17.759 C 12.369 18.145 18.628 21.005 23.266 25.777 L 39.949 42.495 L 111.796 31.934 L 118.49 35.836 L 120.352 37.662 L 115.304 36.123 L 98.443 41.851 C 98.951 42.563 99.371 43.332 99.696 44.141 C 98.647 43.705 97.669 43.115 96.797 42.387 L 83.837 46.826 C 84.278 47.467 84.65 48.151 84.947 48.867 C 84.066 48.513 83.236 48.044 82.477 47.471 L 71.952 53.306 C 72.543 54.101 73.036 54.967 73.42 55.884 C 72.429 55.483 71.501 54.939 70.663 54.272 L 60.247 63.007 C 62.179 65.241 63.915 67.637 65.437 70.167 L 66.69 68.985 L 66.081 67.912 L 68.086 65.836 L 68.301 65.62 L 68.516 65.441 L 70.592 63.436 C 73.667 64.955 76.531 66.87 79.112 69.129 C 82.147 72.627 84.844 76.399 87.167 80.406 L 86.092 81.479 L 84.625 82.947 L 83.587 84.021 L 82.513 83.376 L 81.474 87.171 C 82.925 88.829 84.131 90.686 85.054 92.684 L 107.75 90.93 C 110.686 90.93 115.09 95.512 115.09 95.512 L 92.5 103.102 L 93.933 106.109 L 90.925 104.676 L 83.336 127.266 C 83.336 127.266 78.575 122.684 78.754 119.747 C 78.754 118.1 80.615 97.051 80.615 97.051 C 78.618 96.127 76.761 94.921 75.103 93.472 L 71.451 94.724 L 72.096 95.799 L 71.021 96.837 L 69.554 98.304 L 68.479 99.379 C 64.431 97.005 60.619 94.248 57.096 91.145 C 54.766 88.656 52.768 85.879 51.153 82.875 L 53.158 80.799 L 53.337 80.406 L 53.552 80.19 L 55.629 78.186 L 56.702 78.794 L 57.884 77.506 C 55.342 76.013 52.947 74.287 50.723 72.35 L 42.239 82.839 C 42.906 83.678 43.45 84.605 43.851 85.596 C 42.934 85.213 42.068 84.719 41.273 84.129 L 35.438 94.51 C 36.011 95.268 36.48 96.099 36.835 96.98 C 36.118 96.683 35.435 96.311 34.793 95.87 L 30.354 108.829 C 31.082 109.702 31.672 110.68 32.109 111.729 C 31.299 111.403 30.53 110.984 29.818 110.475 L 24.09 127.266 L 25.629 132.312 L 23.803 130.523 L 19.901 123.828 L 30.641 52.017 L 13.744 35.335 C 8.951 30.696 6.087 24.42 5.726 17.759 M 5.726 14.93 C 4.179 14.948 2.918 16.175 2.862 17.722 C 3.227 25.19 6.413 32.238 11.775 37.447 L 27.455 53.127 L 17.109 123.364 C 17.006 123.994 17.134 124.641 17.467 125.189 L 21.369 131.811 C 21.48 132.027 21.623 132.219 21.799 132.385 L 23.661 134.246 C 24.183 134.768 24.888 135.065 25.629 135.07 C 26.145 135.062 26.649 134.926 27.097 134.675 C 28.196 133.992 28.704 132.66 28.35 131.418 L 27.062 127.301 L 31.429 114.485 L 32.109 114.485 C 32.85 114.482 33.555 114.185 34.078 113.662 C 34.855 112.867 35.12 111.704 34.758 110.654 C 34.4 109.838 33.981 109.047 33.505 108.292 L 36.44 99.701 L 36.835 99.701 C 38.813 99.704 40.185 97.721 39.483 95.87 C 39.483 95.87 39.196 95.154 38.732 94.295 L 42.311 87.887 L 42.848 88.137 C 43.166 88.188 43.496 88.188 43.815 88.137 C 45.795 88.141 47.166 86.159 46.464 84.307 C 46.249 83.777 45.999 83.262 45.712 82.768 L 51.297 76.109 L 52.549 77.076 L 51.619 77.971 L 51.405 78.186 L 51.082 78.507 L 49.042 80.62 C 48.247 81.515 48.078 82.807 48.612 83.877 C 50.34 87.142 52.511 90.154 55.055 92.827 C 58.757 96.046 62.763 98.898 67.012 101.347 C 67.413 101.638 67.882 101.82 68.373 101.885 C 69.124 101.885 69.844 101.587 70.378 101.061 L 71.451 99.987 L 72.883 98.519 L 73.957 97.445 C 74.232 97.205 74.444 96.898 74.565 96.55 C 75.56 97.284 76.603 97.953 77.68 98.555 C 77.25 103.782 76.069 118.029 75.962 119.425 C 75.711 123.364 80.079 127.838 81.403 129.126 C 81.93 129.642 82.638 129.925 83.372 129.914 C 83.598 129.947 83.827 129.947 84.052 129.914 C 84.983 129.682 85.738 128.994 86.057 128.088 L 92.608 108.507 C 92.984 108.704 93.402 108.8 93.825 108.793 C 94.577 108.797 95.296 108.5 95.83 107.969 C 96.686 107.125 96.9 105.825 96.367 104.749 L 116.128 98.304 C 117.033 97.986 117.72 97.23 117.953 96.3 C 118.196 95.351 117.924 94.349 117.237 93.651 C 116.02 92.398 111.724 88.209 107.894 88.209 L 107.536 88.209 L 86.666 89.928 C 86.064 88.85 85.394 87.809 84.661 86.814 C 85.008 86.691 85.316 86.48 85.555 86.205 L 86.63 85.131 L 88.097 83.699 L 89.172 82.625 C 90.142 81.683 90.321 80.19 89.601 79.045 C 87.152 74.796 84.3 70.789 81.081 67.088 C 78.407 64.543 75.396 62.373 72.131 60.645 C 71.723 60.433 71.268 60.322 70.807 60.322 C 70.091 60.322 69.4 60.591 68.874 61.075 L 66.761 63.151 L 66.547 63.365 L 66.225 63.652 L 65.33 64.582 L 64.363 63.33 L 71.021 57.745 C 71.516 58.032 72.031 58.282 72.56 58.496 C 72.894 58.547 73.23 58.547 73.563 58.496 C 75.539 58.529 76.922 56.549 76.212 54.702 L 75.962 54.165 L 82.369 50.586 C 83.229 51.05 83.873 51.301 83.945 51.337 C 84.263 51.466 84.603 51.526 84.947 51.516 C 85.699 51.519 86.419 51.223 86.951 50.692 C 87.585 50.067 87.879 49.175 87.739 48.294 L 96.331 45.359 C 97.087 45.835 97.878 46.254 98.694 46.612 C 99.016 46.722 99.356 46.783 99.696 46.79 C 100.455 46.798 101.182 46.486 101.701 45.931 C 102.381 45.229 102.664 44.234 102.452 43.282 L 115.268 39.094 L 119.457 40.382 C 119.729 40.418 120.008 40.418 120.28 40.382 C 122.428 40.43 123.824 38.135 122.79 36.248 C 122.657 36.004 122.485 35.779 122.284 35.586 L 120.423 33.868 C 120.259 33.692 120.065 33.549 119.851 33.438 L 113.228 29.5 C 112.795 29.246 112.301 29.11 111.796 29.107 L 111.331 29.107 L 40.987 39.488 L 32.574 31.147 L 25.415 23.808 C 20.231 18.457 13.203 15.281 5.761 14.93 L 5.726 14.93 Z" transform="matrix(-0.707107, 0.707107, -0.707107, -0.707107, 160.580948, 83.485199)"/>
  <path class="cls-3" d="M 67.824 62.187 L 66.786 61.579 L 64.71 63.584 L 64.496 63.798 L 64.317 64.013 L 62.312 66.09 L 62.884 67.164 L 67.824 62.187 Z" transform="matrix(-0.707107, 0.707107, -0.707107, -0.707107, 156.595551, 63.879002)"/>
  <path class="cls-2" d="M 129.348 68.681 C 129.677 69.97 130.246 71.187 131.03 72.262 C 131.381 72.179 131.728 72.071 132.068 71.939 C 131.692 71.086 131.406 70.199 131.209 69.29 L 129.348 68.681 Z" transform="matrix(-0.707107, 0.707107, -0.707107, -0.707107, 272.963379, 27.877863)"/>
  <path class="cls-2" d="M 133.178 75.705 L 135.111 76.206 C 134.939 75.236 135.172 74.24 135.756 73.449 L 133.322 71.015 C 132.945 72.551 132.899 74.148 133.178 75.705 Z" transform="matrix(-0.707107, 0.707107, -0.707107, -0.707107, 281.447083, 30.6418)"/>
  <path class="cls-3" d="M 62.884 88.341 L 62.276 87.303 L 64.28 85.227 L 64.496 85.013 L 64.71 84.834 L 66.786 82.829 L 67.861 83.401 L 62.884 88.341 Z" transform="matrix(-0.707107, 0.707107, -0.707107, -0.707107, 171.596619, 100.092361)"/>
  <path class="cls-2" d="M 137.048 77.259 L 136.547 75.325 C 135 74.996 133.403 74.996 131.857 75.325 L 134.292 77.759 C 135.104 77.227 136.099 77.044 137.048 77.259 Z" transform="matrix(-0.707107, 0.707107, -0.707107, -0.707107, 283.560913, 35.382481)"/>
  <path class="cls-2" d="M 129.04 78.071 L 129.506 79.933 C 130.415 80.133 131.302 80.419 132.154 80.792 C 132.287 80.456 132.395 80.108 132.476 79.754 C 131.441 78.988 130.279 78.418 129.04 78.071 Z" transform="matrix(-0.707107, 0.707107, -0.707107, -0.707107, 279.384399, 43.138187)"/>
</svg>