<?xml version="1.0" encoding="utf-8"?>
<svg viewBox="0 0 125 125" width="125" height="125" xmlns="http://www.w3.org/2000/svg">
  <defs>
    <style>.cls-1{fill:#ede2b2;}.cls-2{fill:#596b6a;}.cls-3{fill:#dbcf9e;}.cls-4{fill:#c8eab2;}.cls-5{fill:#cae0e0;}</style>
  </defs>
  <path class="cls-1" d="M 69.614 112.531 L 64.079 111.69 C 62.458 111.307 61.254 109.944 61.071 108.289 C 61.071 107.296 60.078 95.445 59.958 94.091 C 59.918 93.555 60.219 93.053 60.709 92.828 C 60.866 92.788 61.031 92.788 61.19 92.828 L 61.19 91.655 L 57.28 88.887 L 51.264 94.904 L 45.699 104.589 C 45.462 104.999 45.025 105.25 44.555 105.25 L 44.284 105.25 C 44.014 105.25 37.276 103.687 36.043 103.326 C 34.15 102.839 32.885 101.064 33.034 99.114 C 33.034 97.43 32.373 68.612 32.253 64.19 L 29.997 61.904 C 26.958 58.781 24.87 54.858 23.981 50.593 L 20.431 47.044 C 19.565 46.177 18.872 45.158 18.386 44.036 C 18.175 43.564 18.282 43.013 18.657 42.652 L 21.002 40.305 L 14.234 33.598 C 8.652 28.122 4.303 21.517 1.479 14.225 C 1.305 13.765 1.422 13.244 1.78 12.901 C 2.027 12.654 2.36 12.513 2.713 12.509 C 2.839 12.483 2.975 12.483 3.104 12.509 C 10.402 15.365 17.007 19.742 22.476 25.355 L 29.214 32.123 L 31.561 29.777 C 31.798 29.532 32.12 29.392 32.463 29.386 C 32.619 29.341 32.785 29.341 32.945 29.386 C 34.069 29.868 35.089 30.562 35.952 31.432 C 36.975 32.454 38.781 34.44 39.471 35.071 C 43.741 35.977 47.669 38.061 50.813 41.088 L 53.069 43.344 L 87.993 44.126 C 89.943 43.963 91.724 45.235 92.205 47.134 C 92.565 48.367 94.07 55.106 94.13 55.377 C 94.25 55.945 93.98 56.522 93.468 56.79 L 83.811 62.115 L 77.796 68.13 L 80.563 72.042 L 81.736 72.042 C 81.694 71.885 81.694 71.719 81.736 71.56 C 82.001 71.13 82.494 70.896 82.999 70.958 C 84.353 70.958 96.205 71.951 97.198 72.071 C 98.853 72.255 100.212 73.461 100.598 75.08 L 101.439 80.614 C 101.527 81.153 101.26 81.685 100.778 81.938 L 90.278 87.533 C 90.072 87.589 89.853 87.589 89.648 87.533 C 89.488 87.563 89.323 87.563 89.167 87.533 L 83.811 85.307 L 79.992 89.398 C 79.742 89.647 79.409 89.79 79.059 89.79 L 78.728 89.79 C 78.851 90.24 78.725 90.725 78.398 91.053 L 74.487 94.963 L 76.591 100.138 C 76.755 100.492 76.755 100.898 76.591 101.25 L 70.967 111.87 C 70.742 112.296 70.303 112.562 69.824 112.562 L 69.614 112.531 Z" transform="matrix(-0.707107, 0.707107, -0.707107, -0.707107, 132.004807, 70.373314)"/>
  <path class="cls-2" d="M 2.857 13.842 C 9.938 16.627 16.352 20.873 21.688 26.296 L 29.359 33.967 L 32.607 30.719 C 33.554 31.146 34.413 31.747 35.135 32.493 C 36.428 33.786 38.955 36.433 38.955 36.433 C 43.145 37.197 47.01 39.201 50.054 42.18 L 52.702 44.826 L 88.108 45.639 C 89.883 45.639 90.755 46.301 91.116 47.534 C 91.477 48.767 93.041 55.687 93.041 55.687 L 83.144 61.04 L 76.075 68.11 L 79.895 73.434 L 84.257 73.434 L 83.144 72.261 C 83.144 72.261 96.29 73.254 97.252 73.374 C 98.378 73.492 99.297 74.315 99.539 75.42 C 99.718 76.562 100.381 80.925 100.381 80.925 L 89.762 86.519 L 82.844 83.511 L 83.084 84.384 L 79.082 88.354 L 78.482 88.114 L 77.73 88.595 L 77.248 89.347 L 77.488 89.949 L 73.517 94.132 L 72.645 93.89 L 75.654 100.809 L 70.059 111.308 L 64.554 110.465 C 63.45 110.224 62.626 109.304 62.508 108.178 C 62.508 107.216 61.394 94.071 61.394 94.071 L 62.629 95.304 L 62.629 90.882 L 57.304 87.061 L 50.054 94.132 L 44.64 103.967 C 44.64 103.967 37.721 102.434 36.488 102.043 C 35.255 101.652 34.654 100.809 34.593 99.034 C 34.533 97.259 33.781 63.627 33.781 63.627 L 31.194 61.04 C 28.225 58.01 26.225 54.17 25.448 50.001 C 25.448 50.001 22.802 47.414 21.508 46 C 20.762 45.278 20.16 44.42 19.732 43.473 L 22.981 40.345 L 15.312 32.673 C 9.888 27.337 5.643 20.924 2.857 13.842 M 2.857 11.226 C 2.163 11.229 1.495 11.495 0.992 11.977 C 0.298 12.682 0.061 13.723 0.39 14.654 C 3.278 22.134 7.743 28.904 13.476 34.509 L 19.312 40.345 L 17.898 41.758 C 17.155 42.498 16.92 43.608 17.296 44.586 C 17.889 45.837 18.692 46.978 19.673 47.955 C 20.575 48.888 22.169 50.421 23.042 51.233 C 24.028 55.608 26.215 59.618 29.359 62.815 L 31.254 64.71 C 31.405 70.516 31.977 97.5 32.036 99.124 C 31.841 101.594 33.414 103.859 35.796 104.539 C 37.09 104.93 43.437 106.345 44.159 106.494 C 44.34 106.524 44.52 106.524 44.7 106.494 C 45.655 106.497 46.532 105.98 46.987 105.141 L 52.221 95.665 L 57.455 90.4 L 59.621 91.965 C 58.977 92.491 58.628 93.301 58.688 94.132 C 58.868 96.357 59.681 107.396 59.8 108.389 C 60.048 110.664 61.762 112.502 64.013 112.902 L 69.548 113.774 L 69.939 113.774 C 70.906 113.778 71.797 113.245 72.254 112.391 L 77.82 101.892 C 78.166 101.19 78.166 100.367 77.82 99.666 L 75.923 95.124 L 79.234 91.843 C 79.501 91.559 79.706 91.221 79.835 90.851 C 80.206 90.721 80.542 90.517 80.828 90.249 L 84.107 86.941 L 88.65 88.835 C 88.965 88.962 89.302 89.035 89.642 89.046 C 90.074 89.039 90.499 88.926 90.875 88.716 L 101.374 83.15 C 102.354 82.627 102.896 81.541 102.727 80.443 C 102.727 80.443 102.065 76.082 101.855 74.908 C 101.455 72.658 99.616 70.943 97.343 70.696 C 96.35 70.696 85.31 69.764 83.084 69.584 L 83.144 69.584 C 82.374 69.571 81.64 69.914 81.16 70.516 L 79.595 68.351 L 84.859 63.116 L 94.214 58.032 C 95.228 57.482 95.755 56.33 95.508 55.205 C 95.508 54.482 93.943 48.135 93.552 46.842 C 92.908 44.423 90.635 42.805 88.138 42.992 L 53.724 42.21 L 51.83 40.315 C 48.638 37.158 44.625 34.963 40.249 33.967 C 39.436 33.095 37.902 31.501 36.969 30.598 C 35.99 29.618 34.851 28.815 33.601 28.222 C 33.282 28.108 32.946 28.044 32.607 28.042 C 31.916 28.051 31.257 28.331 30.771 28.824 L 29.359 30.237 L 23.522 24.462 C 17.919 18.728 11.147 14.264 3.669 11.376 C 3.402 11.319 3.124 11.319 2.857 11.376 L 2.857 11.226 Z" transform="matrix(-0.707107, 0.707107, -0.707107, -0.707107, 132.111359, 70.27771)"/>
  <path class="cls-3" d="M 51.568 25.851 C 48.873 23.219 45.531 21.339 41.882 20.406 C 42.573 24.798 43.236 30.785 42.122 32.44 C 41.008 34.094 35.414 38.695 31.082 42.787 C 31.582 43.446 32.123 44.069 32.707 44.652 L 35.353 47.299 C 35.353 47.299 36.106 80.931 36.165 82.706 C 36.226 84.481 36.829 85.354 38.061 85.714 C 39.295 86.075 46.213 87.64 46.213 87.64 L 49.222 82.285 C 48.298 79.966 47.967 77.453 48.258 74.973 C 49.101 68.718 56.23 66.251 59.78 62.701 C 63.329 59.151 66.308 46.608 66.669 37.162 C 66.669 34.296 66.19 31.45 65.255 28.739 L 54.215 28.498 L 51.568 25.851 Z" transform="matrix(-0.707107, 0.707107, -0.707107, -0.707107, 121.635727, 57.662834)"/>
  <path class="cls-4" d="M 40.269 88.603 C 39.908 87.371 39.035 86.769 37.261 86.709 L 27.124 86.468 C 27.002 87.277 27.002 88.099 27.124 88.905 C 27.906 92.794 29.858 96.354 32.719 99.102 C 33.14 99.433 33.982 100.005 34.945 100.636 L 42.194 96.635 C 42.194 96.635 40.659 89.837 40.269 88.603 Z" transform="matrix(-0.707107, 0.707107, -0.707107, -0.707107, 125.239769, 135.227997)"/>
  <path class="cls-3" d="M 7.919 59.653 L 11.98 55.683 L 11.74 54.81 L 18.658 57.819 L 29.157 52.224 C 29.157 52.224 28.495 47.862 28.315 46.719 C 28.073 45.615 27.151 44.791 26.029 44.673 C 25.066 44.673 11.921 43.56 11.921 43.56 L 13.154 44.794 L 8.731 44.794 L 7.469 43.049 C 5.585 44.42 3.992 46.149 2.776 48.132 C 0.941 51.682 2.024 57.698 -0.232 61.248 C -2.93 65.483 -5.947 69.505 -9.257 73.28 C -9.016 76.289 -8.805 79.056 -8.746 79.477 C -8.628 80.602 -7.803 81.523 -6.699 81.764 L -1.195 82.606 L 4.4 72.108 L 1.392 65.189 L 2.264 65.43 L 6.235 61.429 L 5.995 60.827 L 6.477 60.076 L 7.228 59.594 L 7.919 59.653 Z" transform="matrix(-0.707107, 0.707107, -0.707107, -0.707107, 61.411465, 100.217537)"/>
  <polygon class="cls-2" points="20.4 57.821 20.641 58.454 16.61 62.485 15.738 62.214 12.278 59.416 17.363 54.363 20.4 57.821" transform="matrix(-0.707107, 0.707107, -0.707107, -0.707107, 69.410133, 88.097382)"/>
  <polygon class="cls-2" points="15.858 70.534 16.491 70.775 20.522 66.744 20.281 65.872 17.452 62.412 12.399 67.466 15.858 70.534" transform="matrix(-0.707107, 0.707107, -0.707107, -0.707107, 75.188545, 102.042885)"/>
  <path class="cls-2" d="M 98.666 62.072 L 97.252 60.659 C 95.718 59.064 94.003 59.064 93.041 59.996 C 92.077 60.929 92.047 62.674 93.582 64.208 L 95.117 65.622 L 98.666 62.072 Z" transform="matrix(-0.707107, 0.707107, -0.707107, -0.707107, 207.243729, 39.142212)"/>
  <path class="cls-2" d="M 77.016 62.096 L 78.611 63.691 C 82.852 67.932 84.627 66.068 84.627 66.068 C 84.627 66.068 86.492 64.233 82.251 60.051 L 80.657 58.456 L 77.016 62.096 Z" transform="matrix(-0.707107, 0.707107, -0.707107, -0.707107, 182.489624, 49.342262)"/>
  <path class="cls-2" d="M 93.744 63.666 L 87.729 57.65 L 84.028 61.351 L 90.044 67.367 L 93.744 63.666 Z" transform="matrix(-0.707107, 0.707107, -0.707107, -0.707107, 195.93808, 43.856789)"/>
  <path class="cls-5" d="M 117.406 63.605 C 113.237 60.232 108.569 57.535 103.57 55.602 C 105.534 60.579 108.265 65.217 111.662 69.349 L 117.406 63.605 Z" transform="matrix(-0.707107, 0.707107, -0.707107, -0.707107, 232.791656, 28.525537)"/>
  <path class="cls-2" d="M 2.857 13.842 C 9.938 16.627 16.352 20.873 21.688 26.296 L 29.359 33.967 L 32.607 30.719 C 33.554 31.146 34.413 31.747 35.135 32.493 C 36.428 33.786 38.955 36.433 38.955 36.433 C 43.145 37.197 47.01 39.201 50.054 42.18 L 52.702 44.826 L 88.108 45.639 C 89.883 45.639 90.755 46.301 91.116 47.534 C 91.477 48.767 93.041 55.687 93.041 55.687 L 83.144 61.04 L 76.075 68.11 L 79.895 73.434 L 84.257 73.434 L 83.144 72.261 C 83.144 72.261 96.29 73.254 97.252 73.374 C 98.378 73.492 99.297 74.315 99.539 75.42 C 99.718 76.562 100.381 80.925 100.381 80.925 L 89.762 86.519 L 82.844 83.511 L 83.084 84.384 L 79.082 88.354 L 78.482 88.114 L 77.73 88.595 L 77.248 89.347 L 77.488 89.949 L 73.517 94.132 L 72.645 93.89 L 75.654 100.809 L 70.059 111.308 L 64.554 110.465 C 63.45 110.224 62.626 109.304 62.508 108.178 C 62.508 107.216 61.394 94.071 61.394 94.071 L 62.629 95.304 L 62.629 90.882 L 57.304 87.061 L 50.054 94.132 L 44.64 103.967 C 44.64 103.967 37.721 102.434 36.488 102.043 C 35.255 101.652 34.654 100.809 34.593 99.034 C 34.533 97.259 33.781 63.627 33.781 63.627 L 31.194 61.04 C 28.225 58.01 26.225 54.17 25.448 50.001 C 25.448 50.001 22.802 47.414 21.508 46 C 20.762 45.278 20.16 44.42 19.732 43.473 L 22.981 40.345 L 15.312 32.673 C 9.888 27.337 5.643 20.924 2.857 13.842 M 2.857 11.226 C 2.163 11.229 1.495 11.495 0.992 11.977 C 0.298 12.682 0.061 13.723 0.39 14.654 C 3.278 22.134 7.743 28.904 13.476 34.509 L 19.312 40.345 L 17.898 41.758 C 17.155 42.498 16.92 43.608 17.296 44.586 C 17.889 45.837 18.692 46.978 19.673 47.955 C 20.575 48.888 22.169 50.421 23.042 51.233 C 24.028 55.608 26.215 59.618 29.359 62.815 L 31.254 64.71 C 31.405 70.516 31.977 97.5 32.036 99.124 C 31.841 101.594 33.414 103.859 35.796 104.539 C 37.09 104.93 43.437 106.345 44.159 106.494 C 44.34 106.524 44.52 106.524 44.7 106.494 C 45.655 106.497 46.532 105.98 46.987 105.141 L 52.221 95.665 L 57.455 90.4 L 59.621 91.965 C 58.977 92.491 58.628 93.301 58.688 94.132 C 58.868 96.357 59.681 107.396 59.8 108.389 C 60.048 110.664 61.762 112.502 64.013 112.902 L 69.548 113.774 L 69.939 113.774 C 70.906 113.778 71.797 113.245 72.254 112.391 L 77.82 101.892 C 78.166 101.19 78.166 100.367 77.82 99.666 L 75.923 95.124 L 79.234 91.843 C 79.501 91.559 79.706 91.221 79.835 90.851 C 80.206 90.721 80.542 90.517 80.828 90.249 L 84.107 86.941 L 88.65 88.835 C 88.965 88.962 89.302 89.035 89.642 89.046 C 90.074 89.039 90.499 88.926 90.875 88.716 L 101.374 83.15 C 102.354 82.627 102.896 81.541 102.727 80.443 C 102.727 80.443 102.065 76.082 101.855 74.908 C 101.455 72.658 99.616 70.943 97.343 70.696 C 96.35 70.696 85.31 69.764 83.084 69.584 L 83.144 69.584 C 82.374 69.571 81.64 69.914 81.16 70.516 L 79.595 68.351 L 84.859 63.116 L 94.214 58.032 C 95.228 57.482 95.755 56.33 95.508 55.205 C 95.508 54.482 93.943 48.135 93.552 46.842 C 92.908 44.423 90.635 42.805 88.138 42.992 L 53.724 42.21 L 51.83 40.315 C 48.638 37.158 44.625 34.963 40.249 33.967 C 39.436 33.095 37.902 31.501 36.969 30.598 C 35.99 29.618 34.851 28.815 33.601 28.222 C 33.282 28.108 32.946 28.044 32.607 28.042 C 31.916 28.051 31.257 28.331 30.771 28.824 L 29.359 30.237 L 23.522 24.462 C 17.919 18.728 11.147 14.264 3.669 11.376 C 3.402 11.319 3.124 11.319 2.857 11.376 L 2.857 11.226 Z" transform="matrix(-0.707107, 0.707107, -0.707107, -0.707107, 132.111359, 70.27771)"/>
</svg>