<?xml version="1.0" encoding="utf-8"?>
<svg viewBox="0 0 150 150" width="150" height="150" xmlns="http://www.w3.org/2000/svg">
  <defs>
    <style>.cls-1{fill:#f2f2f2;}.cls-2{fill:#596b6a;}.cls-3{fill:#a8c1c0;}</style>
  </defs>
  <path class="cls-1" d="M 32.039 133.667 C 31.717 133.671 31.403 133.572 31.147 133.381 C 29.85 132.397 28.653 131.297 27.569 130.091 C 25.96 128.513 24.98 126.401 24.816 124.155 C 24.816 123.617 25.53 117.788 26.925 105.88 L 25.852 104.949 L 22.277 101.123 C 21.969 101.129 21.671 101.011 21.454 100.801 L 18.557 97.904 C 17.233 96.581 17.413 95.042 19.094 93.361 C 19.699 92.646 20.557 92.195 21.489 92.111 C 22.283 92.132 23.034 92.481 23.564 93.076 L 26.39 95.902 C 26.64 96.144 26.783 96.481 26.783 96.831 L 28.035 98.082 L 29.572 84.885 L 28.856 84.242 L 25.031 80.416 C 24.733 80.416 24.451 80.301 24.243 80.094 L 21.346 77.196 C 20.785 76.705 20.448 76.008 20.417 75.266 C 20.528 74.239 21.043 73.301 21.847 72.654 C 22.451 71.939 23.311 71.489 24.243 71.404 C 25.037 71.431 25.784 71.778 26.319 72.369 L 29.108 75.194 C 29.354 75.445 29.504 75.774 29.536 76.123 L 30.967 77.589 L 33.577 53.557 C 31.862 51.805 25.46 45.081 20.417 39.966 C 15.374 34.851 3.786 20.69 7.184 17.292 C 7.704 16.721 8.45 16.409 9.223 16.434 C 13.3 16.434 23.527 23.587 30.036 30.274 C 35.152 35.389 41.875 41.791 43.627 43.544 L 67.661 41.075 L 66.193 39.644 C 65.844 39.617 65.514 39.463 65.265 39.215 L 62.438 36.426 C 61.043 35.031 61.152 33.53 62.726 31.955 C 63.37 31.151 64.308 30.635 65.336 30.524 C 66.073 30.547 66.771 30.872 67.267 31.419 L 70.164 34.316 C 70.404 34.556 70.554 34.869 70.593 35.209 L 74.168 38.787 L 74.812 39.502 L 88.011 37.963 L 86.758 36.712 C 86.407 36.712 86.072 36.568 85.829 36.319 L 83.003 33.493 C 82.252 32.85 81.909 31.852 82.109 30.883 C 82.323 30.168 82.732 29.524 83.289 29.024 C 83.936 28.229 84.876 27.728 85.899 27.627 C 86.634 27.639 87.331 27.946 87.832 28.487 L 90.728 31.384 C 90.968 31.623 91.118 31.938 91.158 32.277 L 94.733 35.854 C 95.091 36.211 95.448 36.605 95.77 36.999 C 106.499 35.746 113.437 34.924 114.081 34.888 C 116.303 35.113 118.38 36.086 119.983 37.642 C 121.188 38.729 122.289 39.924 123.273 41.218 C 123.549 41.572 123.642 42.037 123.524 42.471 C 123.398 42.927 123.048 43.293 122.593 43.435 L 82.252 56.74 L 70.271 64.286 L 67.339 67.254 L 80.035 79.914 C 84.412 84.506 88.396 89.46 91.944 94.72 L 112.615 92.754 C 112.919 92.746 113.22 92.835 113.472 93.004 C 113.689 93.004 115.87 94.828 116.621 95.58 L 119.553 98.404 C 119.896 98.709 120.058 99.166 119.983 99.619 C 119.911 100.086 119.618 100.485 119.195 100.692 L 101.313 109.205 L 101.313 109.42 C 101.52 109.946 101.411 110.543 101.027 110.958 C 100.753 111.204 100.395 111.343 100.025 111.35 C 99.848 111.385 99.665 111.385 99.49 111.35 L 99.276 111.35 L 90.764 129.232 C 90.556 129.654 90.156 129.948 89.691 130.02 L 89.441 130.02 C 89.054 130.016 88.69 129.848 88.439 129.554 L 85.614 126.622 C 84.862 125.872 83.217 123.69 83.038 123.475 C 82.846 123.178 82.76 122.824 82.788 122.474 L 84.792 101.873 C 79.545 98.337 74.602 94.363 70.021 89.999 L 57.361 77.34 L 54.214 80.487 L 46.703 92.539 L 33.399 132.702 C 33.255 133.155 32.891 133.507 32.434 133.631 L 32.039 133.667 Z" transform="matrix(-0.707107, 0.707107, -0.707107, -0.707107, 164.153366, 82.105186)"/>
  <path class="cls-2" d="M 9.136 17.693 C 12.32 17.693 21.905 24.095 28.949 31.14 C 34.923 37.112 43.04 44.873 43.04 44.873 L 70.687 41.869 L 66.431 37.685 L 66.143 37.936 L 63.247 35.146 C 62.281 34.18 62.711 33.501 63.534 32.641 C 63.93 32.13 64.506 31.787 65.142 31.676 C 65.508 31.68 65.851 31.852 66.073 32.142 L 68.97 35.038 L 68.719 35.289 L 73.119 39.652 C 73.441 39.974 73.834 40.439 74.156 40.832 L 91.035 38.865 L 87.03 34.931 L 86.744 35.182 L 83.954 32.356 C 82.988 31.391 83.418 30.711 84.241 29.889 C 84.638 29.37 85.21 29.012 85.851 28.888 C 86.211 28.906 86.548 29.073 86.779 29.352 L 89.676 32.249 L 89.426 32.499 L 93.826 36.863 C 94.254 37.292 94.754 37.936 95.148 38.4 L 114.175 36.219 L 114.354 36.219 C 116.137 36.526 117.787 37.374 119.074 38.651 C 120.176 39.638 121.202 40.699 122.151 41.833 L 81.738 55.245 L 69.434 62.933 L 65.286 67.083 L 78.946 80.744 C 83.437 85.483 87.517 90.59 91.143 96.016 L 112.601 93.941 C 113.645 94.699 114.647 95.512 115.605 96.372 L 118.572 99.199 L 99.404 108.318 L 100.013 109.749 L 98.582 109.14 L 89.355 128.345 C 89.355 128.345 87.245 126.093 86.529 125.377 C 85.668 124.418 84.855 123.417 84.097 122.373 L 86.172 100.916 C 80.747 97.288 75.639 93.207 70.9 88.719 L 57.24 75.059 L 53.089 79.207 L 45.365 91.617 L 31.954 132.136 C 30.819 131.189 29.758 130.162 28.771 129.06 C 27.445 127.738 26.589 126.017 26.339 124.162 C 26.339 123.483 27.448 114.576 28.521 105.135 C 28.056 104.742 27.412 104.24 26.982 103.812 L 22.62 99.412 L 22.369 99.663 L 19.473 96.765 C 18.542 95.872 19.151 95.051 20.008 94.227 C 20.342 93.77 20.841 93.458 21.405 93.368 C 21.822 93.412 22.209 93.616 22.477 93.941 L 25.302 96.73 L 25.051 97.017 L 28.986 101.022 C 29.808 94.048 30.596 87.36 30.952 84.142 C 30.56 83.82 30.095 83.427 29.773 83.105 L 25.409 78.705 L 25.159 78.956 L 22.262 76.058 C 21.332 75.165 21.94 74.342 22.763 73.521 C 23.113 73.066 23.624 72.758 24.194 72.661 C 24.612 72.704 24.998 72.908 25.266 73.233 L 28.056 76.023 L 27.805 76.309 L 31.989 80.565 L 34.994 52.92 C 34.994 52.92 27.232 44.802 21.261 38.829 C 13.392 30.962 6.312 19.909 8.1 18.158 C 8.329 17.936 8.644 17.832 8.957 17.873 M 8.957 15.046 C 7.893 15.01 6.859 15.412 6.098 16.156 L 6.026 16.156 C 3.987 18.195 4.739 21.663 8.6 27.707 C 11.702 32.464 15.271 36.899 19.257 40.939 C 23.979 45.624 29.986 51.669 32.06 54.029 L 29.881 73.984 L 27.269 71.339 C 26.464 70.494 25.359 70.008 24.194 69.98 C 22.824 70.005 21.525 70.601 20.617 71.623 C 19.916 72.273 19.366 73.066 19.008 73.949 C 18.607 75.461 19.126 77.067 20.33 78.061 L 23.227 80.958 C 23.56 81.302 23.982 81.549 24.444 81.675 L 25.051 82.281 L 27.842 85.071 L 28.056 85.287 L 26.947 94.584 L 24.48 92.117 C 23.675 91.272 22.569 90.787 21.405 90.758 C 20.034 90.784 18.737 91.381 17.828 92.403 C 14.716 95.515 16.754 98.162 17.47 98.768 L 20.33 101.739 C 20.664 102.081 21.086 102.328 21.546 102.453 L 23.12 104.027 L 24.98 105.85 C 25.141 106.047 25.32 106.226 25.517 106.387 C 23.621 123.196 23.55 123.697 23.55 123.91 C 23.629 126.547 24.729 129.051 26.625 130.885 C 27.716 132.176 28.91 133.371 30.202 134.461 C 30.692 134.876 31.314 135.105 31.954 135.105 C 32.226 135.141 32.506 135.141 32.778 135.105 C 33.706 134.772 34.403 133.992 34.636 133.031 L 47.977 92.797 L 55.128 81.066 L 57.06 79.135 L 68.897 91.009 C 73.347 95.249 78.128 99.126 83.203 102.596 L 81.307 122.265 C 81.23 122.967 81.419 123.672 81.844 124.232 C 82.669 125.396 83.564 126.504 84.527 127.56 L 87.316 130.456 C 87.845 131.021 88.582 131.343 89.355 131.35 L 89.819 131.35 C 90.725 131.193 91.5 130.606 91.894 129.776 L 99.976 112.466 C 101.454 112.413 102.641 111.225 102.695 109.749 L 119.683 101.739 C 121.482 100.901 121.853 98.505 120.398 97.16 L 117.5 94.584 C 116.446 93.623 115.337 92.73 114.175 91.903 C 113.689 91.542 113.102 91.34 112.494 91.331 L 112.207 91.331 L 92.538 93.225 C 89.069 88.151 85.192 83.368 80.949 78.921 L 69.255 67.262 L 71.188 65.33 L 82.918 58.176 L 123.152 44.516 C 124.017 44.215 124.693 43.526 124.975 42.656 C 125.218 41.762 125.018 40.803 124.44 40.081 C 123.348 38.79 122.154 37.596 120.862 36.505 C 119.107 34.742 116.793 33.64 114.317 33.393 L 114.032 33.393 L 96.435 35.395 L 95.9 34.86 L 95.076 34 L 92.502 31.426 C 92.398 30.972 92.177 30.554 91.858 30.211 L 88.962 27.313 C 88.2 26.501 87.141 26.037 86.028 26.025 C 84.641 26.13 83.349 26.788 82.453 27.851 C 80.361 29.444 80.221 32.549 82.166 34.322 L 84.634 36.79 L 75.515 37.827 L 75.3 37.614 L 72.117 34.43 L 71.902 34.216 C 71.777 33.754 71.531 33.332 71.188 32.999 L 68.182 30.211 C 67.42 29.399 66.362 28.933 65.25 28.924 C 63.863 29.027 62.571 29.685 61.674 30.747 C 60.929 31.438 60.387 32.313 60.1 33.286 C 59.808 34.73 60.294 36.228 61.388 37.221 L 64.034 39.83 L 44.077 42.013 C 41.79 39.723 35.637 33.787 31.06 29.137 C 24.944 23.058 14.036 14.868 9.136 14.868 L 8.957 15.046 Z" transform="matrix(-0.707107, 0.707107, -0.707107, -0.707107, 163.995102, 82.071014)"/>
  <polygon class="cls-2" points="139.893 73.056 140.608 73.806 139.964 75.343 139.321 75.272 139.893 73.056" transform="matrix(-0.707107, 0.707107, -0.707107, -0.707107, 291.401306, 27.696625)"/>
  <path class="cls-2" d="M 136.981 71.091 L 137.625 71.091 L 138.806 73.917 L 138.484 73.917 C 137.822 73.07 137.311 72.114 136.981 71.091 Z" transform="matrix(-0.707107, 0.707107, -0.707107, -0.707107, 286.666992, 26.266644)"/>
  <polygon class="cls-2" points="138.605 73.996 138.998 74.102 138.783 73.638 138.605 73.996" transform="matrix(-0.707107, 0.707107, -0.707107, -0.707107, 289.182953, 27.956495)"/>
  <polygon class="cls-2" points="137.772 72.826 138.129 72.826 138.343 73.363 138.094 73.577 137.772 72.826" transform="matrix(-0.707107, 0.707107, -0.707107, -0.707107, 287.440186, 27.341381)"/>
  <path class="cls-3" d="M 81.855 28.776 C 81.103 29.528 80.532 30.207 81.033 30.993 L 83.893 28.132 C 83.142 27.668 82.533 28.097 81.855 28.776 Z" transform="matrix(-0.707107, 0.707107, -0.707107, -0.707107, 161.447006, -7.942602)"/>
  <path class="cls-3" d="M 94.491 45.396 C 93.775 46.146 93.203 46.825 93.702 47.613 L 96.565 44.752 C 95.814 44.286 95.206 44.681 94.491 45.396 Z" transform="matrix(-0.707107, 0.707107, -0.707107, -0.707107, 194.826996, 11.463471)"/>
  <polygon class="cls-2" points="138.819 75.899 139.571 76.613 141.108 75.969 141.037 75.325 138.819 75.899" transform="matrix(-0.707107, 0.707107, -0.707107, -0.707107, 292.650848, 30.718052)"/>
  <path class="cls-2" d="M 136.48 76.754 L 136.48 77.397 L 139.305 78.577 L 139.305 78.255 C 138.457 77.589 137.503 77.082 136.48 76.754 Z" transform="matrix(-0.707107, 0.707107, -0.707107, -0.707107, 290.315002, 35.078587)"/>
  <polygon class="cls-2" points="138.927 76.102 139.034 76.495 138.569 76.281 138.927 76.102" transform="matrix(-0.707107, 0.707107, -0.707107, -0.707107, 290.900177, 32.102207)"/>
  <polygon class="cls-2" points="137.683 76.681 137.683 77.039 138.218 77.253 138.433 77.003 137.683 76.681" transform="matrix(-0.707107, 0.707107, -0.707107, -0.707107, 290.103638, 33.769138)"/>
  <path class="cls-3" d="M 81.676 120.187 C 82.428 119.438 83.106 118.864 83.893 119.365 L 81.033 122.226 C 80.568 121.475 80.996 120.867 81.676 120.187 Z" transform="matrix(-0.707107, 0.707107, -0.707107, -0.707107, 225.955444, 147.808594)"/>
  <path class="cls-3" d="M 94.355 103.537 C 95.105 102.822 95.785 102.25 96.571 102.75 L 93.711 105.611 C 93.245 104.86 93.64 104.252 94.355 103.537 Z" transform="matrix(-0.707107, 0.707107, -0.707107, -0.707107, 235.84375, 110.482368)"/>
</svg>