<?xml version="1.0" encoding="utf-8"?>
<svg viewBox="0 0 150 150" width="150" height="150" xmlns="http://www.w3.org/2000/svg">
  <defs>
    <style>.cls-1{fill:#ede2b2;}.cls-2,.cls-4{fill:#596b6a;}.cls-3{fill:#dbcf9e;}.cls-4{stroke:#596b6a;stroke-width:0.28px;}.cls-4,.cls-5{stroke-miterlimit:10;}.cls-5{fill:none;stroke:#ede2b2;stroke-width:.937;}</style>
  </defs>
  <path class="cls-1" d="M 94.088 123.621 C 93.882 123.672 93.667 123.672 93.464 123.621 C 91.993 122.797 90.602 121.839 89.311 120.755 C 88.398 119.915 87.97 118.673 88.173 117.448 C 88.158 117.151 88.262 116.858 88.466 116.64 L 95.043 109.292 L 60.838 78.431 L 55.548 81.002 C 55.367 81.054 55.178 81.054 54.997 81.002 C 54.805 81.059 54.601 81.059 54.41 81.002 C 53.525 80.513 52.709 79.907 51.985 79.203 L 43.681 70.972 L 37.105 76.445 C 36.871 76.629 36.592 76.734 36.296 76.741 C 35.999 76.66 35.739 76.477 35.561 76.226 L 29.978 70.571 L 27.699 68.292 C 27.002 67.589 27.002 66.457 27.699 65.755 C 28.017 65.4 28.469 65.199 28.948 65.205 C 29.438 65.188 29.909 65.391 30.232 65.755 L 31.704 67.226 L 32.988 65.205 L 31.592 63.844 C 30.892 63.13 30.892 61.989 31.592 61.273 C 31.932 60.934 32.399 60.748 32.88 60.759 C 33.347 60.758 33.798 60.944 34.129 61.273 L 35.378 62.524 L 36.995 60.721 L 24.832 48.415 L 21.158 44.114 C 20.618 43.533 20.119 42.923 19.654 42.28 C 18.259 40.505 17.757 38.188 18.29 35.995 C 17.826 35.212 17.672 34.282 17.852 33.386 L 17.19 29.235 C 16.7 28.736 16.7 27.937 17.19 27.435 L 17.889 26.701 C 18.391 26.21 19.188 26.21 19.688 26.701 L 23.989 27.583 L 24.539 27.583 C 25.223 27.578 25.895 27.757 26.486 28.097 C 27.041 27.912 27.623 27.813 28.213 27.802 C 29.885 27.848 31.504 28.414 32.841 29.418 C 33.516 29.896 34.157 30.423 34.753 30.997 L 38.905 34.416 L 51.212 46.834 L 53.015 45.219 L 51.801 43.97 C 50.837 42.971 51.318 41.303 52.664 40.969 C 52.788 40.94 52.919 40.921 53.05 40.918 C 53.529 40.915 53.989 41.099 54.334 41.433 L 55.696 42.792 L 57.493 41.213 L 56.025 39.742 C 55.33 39.039 55.33 37.91 56.025 37.208 C 56.345 36.853 56.799 36.653 57.275 36.657 C 57.754 36.655 58.214 36.838 58.56 37.172 L 60.838 39.487 C 60.899 39.471 60.962 39.471 61.02 39.487 L 66.68 45.069 C 67.123 45.561 67.123 46.308 66.68 46.799 L 61.28 53.301 L 69.546 61.531 C 70.25 62.255 70.857 63.072 71.344 63.955 C 71.512 64.316 71.512 64.733 71.344 65.094 L 68.628 70.458 L 99.38 104.7 L 107.056 98.27 C 107.222 98.125 107.429 98.038 107.645 98.012 L 108.196 98.012 C 109.246 98.005 110.248 98.446 110.951 99.225 C 112.048 100.506 113.008 101.899 113.817 103.376 C 114.112 103.797 114.112 104.355 113.817 104.772 L 106.69 113.959 L 107.35 114.582 C 107.578 114.837 107.708 115.16 107.717 115.501 C 107.733 115.836 107.598 116.155 107.35 116.383 L 106.615 117.154 C 106.365 117.38 106.039 117.513 105.698 117.521 C 105.368 117.517 105.052 117.384 104.818 117.154 L 104.155 116.493 L 94.969 123.621 C 94.688 123.738 94.371 123.738 94.088 123.621 Z" transform="matrix(-0.707107, 0.707107, -0.707107, -0.707107, 164.744324, 81.802162)"/>
  <path class="cls-2" d="M 18.925 27.709 L 19.218 28.001 L 24.144 29.031 C 24.362 28.996 24.583 28.996 24.803 29.031 C 25.494 29.026 26.158 29.306 26.64 29.804 C 27.16 29.389 27.817 29.181 28.477 29.215 C 29.81 29.296 31.088 29.766 32.151 30.576 C 32.784 31.009 33.374 31.499 33.913 32.042 L 38.142 35.716 L 51.294 48.69 L 54.968 45.381 L 52.761 43.214 C 52.554 43 52.554 42.656 52.761 42.441 C 52.881 42.394 53.015 42.394 53.131 42.441 C 53.248 42.389 53.38 42.389 53.497 42.441 L 55.738 44.683 L 59.412 41.377 L 56.987 38.952 C 56.8 38.744 56.8 38.426 56.987 38.218 C 57.107 38.169 57.239 38.169 57.354 38.218 C 57.485 38.163 57.63 38.163 57.762 38.218 L 60.222 40.678 L 65.878 46.262 L 59.707 53.611 L 68.89 62.647 C 69.508 63.288 70.04 64.004 70.471 64.779 L 67.494 70.806 L 99.679 106.627 L 108.13 99.279 L 108.386 99.279 C 109.103 99.292 109.788 99.582 110.297 100.087 C 111.309 101.261 112.206 102.527 112.981 103.87 L 105.633 113.094 L 104.456 111.953 L 103.722 112.69 L 106.439 115.372 L 105.669 116.104 L 102.986 113.426 L 102.252 114.157 L 103.391 115.333 L 94.169 122.682 C 92.797 121.929 91.506 121.045 90.312 120.037 C 89.697 119.492 89.396 118.682 89.501 117.868 L 96.85 109.381 L 61.028 77.197 L 55.261 80.028 C 54.492 79.598 53.778 79.08 53.131 78.483 L 44.017 69.444 L 36.671 75.618 L 31.086 69.959 L 28.477 67.426 C 28.29 67.216 28.29 66.901 28.477 66.69 C 28.596 66.644 28.728 66.644 28.844 66.69 C 28.974 66.637 29.12 66.637 29.25 66.69 L 31.675 69.115 L 34.943 65.441 L 32.703 63.201 C 32.515 62.99 32.515 62.674 32.703 62.465 C 32.833 62.415 32.977 62.415 33.107 62.465 C 33.225 62.419 33.356 62.419 33.475 62.465 L 35.641 64.632 L 38.983 60.958 L 25.979 47.806 L 22.488 43.578 C 22.004 43.015 21.553 42.428 21.128 41.816 C 19.146 38.952 19.771 36.602 20.245 36.159 C 19.601 35.5 19.348 34.553 19.587 33.661 L 18.483 28.592 L 18.191 28.592 L 18.925 27.894 M 18.925 25.357 C 18.252 25.357 17.606 25.623 17.122 26.091 L 16.388 26.828 C 15.514 27.708 15.407 29.091 16.132 30.096 L 16.905 33.77 C 16.811 34.712 16.96 35.661 17.345 36.528 C 16.92 38.912 17.523 41.368 18.998 43.287 C 19.497 43.98 20.036 44.64 20.612 45.27 L 24.067 49.423 L 34.539 60.04 C 34.068 59.767 33.539 59.616 32.997 59.6 C 32.177 59.59 31.393 59.924 30.829 60.517 C 30.244 61.089 29.917 61.869 29.912 62.687 C 29.922 63.269 30.087 63.838 30.388 64.339 C 29.896 64.014 29.32 63.848 28.734 63.862 C 27.923 63.848 27.143 64.168 26.566 64.742 C 25.401 65.953 25.401 67.867 26.566 69.078 L 28.809 71.282 C 28.857 71.396 28.933 71.497 29.029 71.574 L 34.611 77.197 C 35.08 77.692 35.733 77.971 36.415 77.969 C 37.004 77.971 37.577 77.762 38.031 77.382 L 43.87 72.679 L 47.141 75.911 L 51.33 80.063 C 52.142 80.873 53.069 81.554 54.087 82.084 C 54.444 82.289 54.85 82.388 55.261 82.377 C 55.645 82.384 56.023 82.297 56.364 82.123 L 60.884 79.916 L 93.542 109.308 L 87.775 115.885 C 87.476 116.212 87.27 116.621 87.188 117.061 C 86.929 118.692 87.479 120.348 88.657 121.506 C 90.027 122.686 91.519 123.721 93.102 124.594 C 93.485 124.805 93.916 124.917 94.352 124.922 C 94.925 124.919 95.481 124.725 95.933 124.37 L 104.197 117.943 C 104.668 118.318 105.25 118.526 105.853 118.53 C 106.526 118.539 107.175 118.272 107.653 117.796 L 108.386 117.061 C 108.869 116.585 109.144 115.939 109.158 115.26 C 109.168 114.652 108.943 114.058 108.534 113.608 L 115.001 105.303 C 115.626 104.498 115.699 103.391 115.184 102.51 C 114.314 100.933 113.292 99.446 112.134 98.066 C 111.162 97.084 109.841 96.53 108.46 96.521 L 107.689 96.521 C 107.258 96.607 106.855 96.797 106.514 97.073 L 99.937 102.878 L 70.546 70.218 L 72.749 65.699 C 73.136 64.976 73.136 64.107 72.749 63.384 C 72.218 62.388 71.553 61.475 70.765 60.665 L 66.576 56.477 L 63.345 53.168 L 68.049 47.512 C 68.93 46.544 68.93 45.062 68.049 44.094 L 62.388 38.51 L 62.095 38.253 L 59.889 36.048 C 59.324 35.465 58.536 35.143 57.724 35.167 C 56.91 35.157 56.128 35.476 55.554 36.048 C 54.61 37.043 54.444 38.549 55.15 39.722 C 54.66 39.402 54.085 39.234 53.497 39.246 C 52.691 39.255 51.914 39.568 51.33 40.128 C 50.385 41.115 50.189 42.605 50.852 43.802 L 40.051 33.734 L 35.825 30.134 C 35.181 29.567 34.493 29.051 33.77 28.592 C 32.25 27.414 30.396 26.744 28.477 26.68 C 27.977 26.623 27.473 26.623 26.973 26.68 C 26.279 26.426 25.541 26.328 24.803 26.386 L 24.217 26.386 L 20.542 25.614 C 20.118 25.299 19.601 25.132 19.073 25.138 L 18.925 25.357 Z" transform="matrix(-0.707107, 0.707107, -0.707107, -0.707107, 165.021622, 81.705643)"/>
  <path class="cls-3" d="M 113.044 65.567 L 100.919 53.957 L 97.245 50.469 C 97.245 50.469 95.81 49.18 94.783 48.445 C 93.645 47.874 92.384 47.583 91.109 47.599 C 91.834 51.1 91.746 54.72 90.853 58.182 C 88.956 60.443 86.866 62.532 84.605 64.428 L 87.104 67.478 L 99.301 79.895 L 95.189 81.403 C 94.974 81.191 94.629 81.191 94.415 81.403 C 94.228 81.611 94.228 81.928 94.415 82.136 L 90.962 85.627 C 90.757 85.395 90.395 85.395 90.191 85.627 C 90.191 85.846 89.529 86.657 89.752 86.876 L 91.881 89.19 L 93.055 90.991 L 98.054 95.803 L 105.768 89.153 C 106.282 89.705 106.687 90.403 107.643 91.321 C 108.085 90.954 108.783 89.852 109.148 89.484 C 112.639 85.81 115.577 74.238 116.202 64.686 L 113.044 65.567 Z" transform="matrix(-0.707107, 0.707107, -0.707107, -0.707107, 222.099548, 51.404732)"/>
  <path class="cls-3" d="M 97.753 89.753 C 97.753 89.385 97.753 89.019 97.753 88.653 L 96.614 87.513 C 96.193 87.227 95.619 87.506 95.583 88.013 C 95.572 88.159 95.611 88.309 95.696 88.431 L 97.679 90.452 C 97.72 90.222 97.745 89.989 97.753 89.753 Z" transform="matrix(-0.707107, 0.707107, -0.707107, -0.707107, 227.900589, 83.450714)"/>
  <path class="cls-3" d="M 48.737 60.356 C 48.302 59.572 47.772 58.844 47.157 58.187 C 44.979 59.768 43.121 61.749 41.684 64.029 C 40.598 67.244 39.977 70.597 39.845 73.985 L 63.984 95.698 L 65.124 96.802 L 67.437 90.004 L 47.049 66.198 L 48.737 60.356 Z" transform="matrix(-0.707107, 0.707107, -0.707107, -0.707107, 146.367798, 94.361473)"/>
  <rect class="cls-2" x="107.059" y="104.67" width="0.954" height="27.959" transform="matrix(0, 1, -1, 0, 135.345413, -38.943718)"/>
  <rect class="cls-2" x="105.663" y="106.066" width="0.954" height="27.959" transform="matrix(0, 1, -1, 0, 136.722305, -39.541233)"/>
  <rect class="cls-2" x="26.782" y="30.64" width="9.697" height="5.915" rx="0.24" ry="0.24" transform="matrix(0, 1, -1, 0, 164.104126, 43.38361)"/>
  <path class="cls-2" d="M 129.451 72.593 L 124.53 71.565 L 124.237 71.273 L 123.5 72.154 L 123.793 72.154 L 124.823 77.077 C 124.64 77.613 124.64 78.193 124.823 78.729 L 131.031 72.557 C 130.515 72.409 129.964 72.422 129.451 72.593 Z" transform="matrix(-0.707107, 0.707107, -0.707107, -0.707107, 270.28952, 38.044415)"/>
  <path class="cls-2" d="M 91.679 83.358 C 91.455 82.852 91.159 82.381 90.799 81.962 C 90.383 81.611 89.91 81.337 89.402 81.154 L 87.93 82.623 C 88.114 83.133 88.39 83.606 88.74 84.018 C 89.156 84.382 89.629 84.677 90.136 84.903 L 91.679 83.358 Z" transform="matrix(-0.707107, 0.707107, -0.707107, -0.707107, 212.015884, 78.237144)"/>
  <polygon class="cls-4" points="67.809 85.415 69.501 86.187 70.271 84.495 70.602 84.643 71.3 83.138 71.705 83.284 72.4 81.741 70.418 80.859 68.986 79.425 66.707 84.311 67.809 85.415" transform="matrix(-0.707107, 0.707107, -0.707107, -0.707107, 177.287933, 92.176933)"/>
  <path class="cls-2" d="M 90.057 68.872 C 89.551 68.65 89.081 68.353 88.661 67.99 C 88.31 67.578 88.037 67.104 87.853 66.594 L 89.358 65.126 C 89.854 65.316 90.316 65.586 90.717 65.933 C 91.078 66.353 91.377 66.821 91.6 67.33 L 90.057 68.872 Z" transform="matrix(-0.707107, 0.707107, -0.707107, -0.707107, 200.548157, 50.928234)"/>
  <polygon class="cls-4" points="72.175 65.391 72.949 67.119 71.257 67.889 71.404 68.219 69.898 68.882 70.081 69.323 68.501 70.02 67.657 68.036 66.188 66.604 71.074 64.289 72.175 65.391" transform="matrix(-0.707107, 0.707107, -0.707107, -0.707107, 166.246262, 65.44754)"/>
  <polygon class="cls-2" points="123.386 73.606 122.76 72.393 120.445 74.708 118.132 77.022 119.344 77.684 123.386 73.606" transform="matrix(-0.707107, 0.707107, -0.707107, -0.707107, 259.20874, 42.709221)"/>
  <polygon class="cls-2" points="101.588 70.423 106.035 74.317 108.974 75.418 109.377 75.014 102.877 68.477 101.588 70.423" transform="matrix(-0.707107, 0.707107, -0.707107, -0.707107, 230.944458, 48.234673)"/>
  <polygon class="cls-2" points="120.206 73.789 113.149 67.984 111.717 67.25 111.132 67.837 114.29 70.997 119.397 75.036 120.206 73.789" transform="matrix(-0.707107, 0.707107, -0.707107, -0.707107, 247.76503, 39.658363)"/>
  <polygon class="cls-2" points="102.012 75.462 108.551 82 108.956 81.598 107.889 78.622 103.994 74.21 102.012 75.462" transform="matrix(-0.707107, 0.707107, -0.707107, -0.707107, 235.301025, 58.745121)"/>
  <polygon class="cls-2" points="111.739 74.975 112.514 76.371 118.28 83.461 119.565 82.653 115.49 77.508 112.33 74.385 111.739 74.975" transform="matrix(-0.707107, 0.707107, -0.707107, -0.707107, 253.237305, 52.951675)"/>
  <polygon class="cls-2" points="104.645 72.554 104.166 73.067 103.101 74.098 107.621 78.616 108.906 77.328 110.229 76.007 105.71 71.488 104.645 72.554" transform="matrix(-0.707107, 0.707107, -0.707107, -0.707107, 235.15831, 52.698231)"/>
  <polygon class="cls-2" points="118.416 78.623 118.416 78.623 118.673 78.363 118.893 78.107 118.893 78.107 119.995 77.004 114.559 70.353 110.663 74.25 117.313 79.723 118.416 78.623" transform="matrix(-0.707107, 0.707107, -0.707107, -0.707107, 249.938797, 46.547955)"/>
  <circle class="cls-2" cx="63.993" cy="64.543" r="3.232" transform="matrix(-0.707107, 0.707107, -0.707107, -0.707107, 182.120941, 75.388908)"/>
  <rect class="cls-2" x="48.68" y="60.913" width="21.31" height="0.993" transform="matrix(0.952129, 0.305695, -0.305695, 0.952129, 53.459747, -1.637924)"/>
  <polygon class="cls-2" points="129.175 105.521 107.938 64.223 110.84 62.72 130.02 100.12 129.175 105.521" transform="matrix(-0.707107, 0.707107, -0.707107, -0.707107, 262.592041, 59.471821)"/>
  <polygon class="cls-2" points="140.803 95.583 143.706 94.074 143.007 90.401 140.106 91.871 140.803 95.583" transform="matrix(-0.707107, 0.707107, -0.707107, -0.707107, 308.003967, 58.404579)"/>
  <polygon class="cls-2" points="53.291 44.43 74.53 85.723 71.661 87.23 52.445 49.829 53.291 44.43" transform="matrix(-0.707107, 0.707107, -0.707107, -0.707107, 154.928787, 67.486404)"/>
  <polygon class="cls-2" points="41.635 54.381 38.766 55.886 39.43 59.56 42.333 58.091 41.635 54.381" transform="matrix(-0.707107, 0.707107, -0.707107, -0.707107, 109.506554, 68.581902)"/>
  <rect class="cls-2" x="48.68" y="60.913" width="21.31" height="0.993" transform="matrix(0.305695, -0.952129, 0.952129, 0.305695, 14.595223, 112.721443)"/>
  <polygon class="cls-2" points="111.827 25.373 110.32 22.508 106.646 23.171 108.119 26.07 111.827 25.373" transform="matrix(-0.707107, 0.707107, -0.707107, -0.707107, 203.65329, -35.777958)"/>
  <polygon class="cls-2" points="121.78 37.033 80.484 58.269 78.978 55.404 116.378 36.187 121.78 37.033" transform="matrix(-0.707107, 0.707107, -0.707107, -0.707107, 204.752914, 9.64457)"/>
  <polygon class="cls-2" points="70.613 124.6 72.085 127.467 75.794 126.805 74.287 123.902 70.613 124.6" transform="matrix(-0.707107, 0.707107, -0.707107, -0.707107, 213.838547, 162.794174)"/>
  <polygon class="cls-2" points="60.688 112.915 102.021 91.679 103.49 94.548 66.126 113.76 60.688 112.915" transform="matrix(-0.707107, 0.707107, -0.707107, -0.707107, 212.768341, 117.307472)"/>
  <polygon class="cls-2" points="89.034 75.592 87.599 70.449 84.808 71.918 88.151 76.069 89.034 75.592" transform="matrix(-0.707107, 0.707107, -0.707107, -0.707107, 200.185364, 63.598507)"/>
  <polygon class="cls-2" points="93.434 74.355 94.866 79.501 97.66 78.029 94.316 73.879 93.434 74.355" transform="matrix(-0.707107, 0.707107, -0.707107, -0.707107, 217.336945, 63.356083)"/>
  <polygon class="cls-2" points="91.82 77.188 86.712 78.623 88.146 81.414 92.298 78.069 91.82 77.188" transform="matrix(-0.707107, 0.707107, -0.707107, -0.707107, 208.868866, 72.085686)"/>
  <polygon class="cls-2" points="90.585 72.788 95.728 71.355 94.297 68.561 90.144 71.905 90.585 72.788" transform="matrix(-0.707107, 0.707107, -0.707107, -0.707107, 208.626083, 54.933243)"/>
  <path class="cls-2" d="M 91.352 83.485 C 89.095 83.509 86.924 82.619 85.326 81.024 C 80.703 76.4 82.819 68.504 89.135 66.811 C 92.067 66.027 95.195 66.865 97.34 69.01 C 101.949 73.638 99.819 81.522 93.507 83.201 C 92.803 83.388 92.079 83.483 91.352 83.485 Z" transform="matrix(-0.707107, 0.707107, -0.707107, -0.707107, 208.938461, 63.462505)"/>
  <path class="cls-1" d="M 90.798 67.231 C 96.962 67.22 100.825 73.89 97.749 79.234 C 94.674 84.578 86.968 84.589 83.878 79.253 C 82.061 76.115 82.579 72.149 85.137 69.581 C 86.64 68.077 88.674 67.233 90.798 67.231 M 90.798 66.238 C 88.413 66.222 86.124 67.159 84.44 68.847 C 80.912 72.363 80.912 78.079 84.44 81.596 C 86.124 83.28 88.413 84.222 90.798 84.204 C 97.711 84.647 102.512 77.437 99.437 71.225 C 97.827 67.974 94.42 66.006 90.798 66.238 Z" transform="matrix(-0.707107, 0.707107, -0.707107, -0.707107, 208.689713, 64.000854)"/>
  <path class="cls-2" d="M 18.925 27.709 L 19.218 28.001 L 24.144 29.031 C 24.362 28.996 24.583 28.996 24.803 29.031 C 25.494 29.026 26.158 29.306 26.64 29.804 C 27.16 29.389 27.817 29.181 28.477 29.215 C 29.81 29.296 31.088 29.766 32.151 30.576 C 32.784 31.009 33.374 31.499 33.913 32.042 L 38.142 35.716 L 51.294 48.69 L 54.968 45.381 L 52.761 43.214 C 52.554 43 52.554 42.656 52.761 42.441 C 52.881 42.394 53.015 42.394 53.131 42.441 C 53.248 42.389 53.38 42.389 53.497 42.441 L 55.738 44.683 L 59.412 41.377 L 56.987 38.952 C 56.8 38.744 56.8 38.426 56.987 38.218 C 57.107 38.169 57.239 38.169 57.354 38.218 C 57.485 38.163 57.63 38.163 57.762 38.218 L 60.222 40.678 L 65.878 46.262 L 59.707 53.611 L 68.89 62.647 C 69.508 63.288 70.04 64.004 70.471 64.779 L 67.494 70.806 L 99.679 106.627 L 108.13 99.279 L 108.386 99.279 C 109.103 99.292 109.788 99.582 110.297 100.087 C 111.309 101.261 112.206 102.527 112.981 103.87 L 105.633 113.094 L 104.456 111.953 L 103.722 112.69 L 106.439 115.372 L 105.669 116.104 L 102.986 113.426 L 102.252 114.157 L 103.391 115.333 L 94.169 122.682 C 92.797 121.929 91.506 121.045 90.312 120.037 C 89.697 119.492 89.396 118.682 89.501 117.868 L 96.85 109.381 L 61.028 77.197 L 55.261 80.028 C 54.492 79.598 53.778 79.08 53.131 78.483 L 44.017 69.444 L 36.671 75.618 L 31.086 69.959 L 28.477 67.426 C 28.29 67.216 28.29 66.901 28.477 66.69 C 28.596 66.644 28.728 66.644 28.844 66.69 C 28.974 66.637 29.12 66.637 29.25 66.69 L 31.675 69.115 L 34.943 65.441 L 32.703 63.201 C 32.515 62.99 32.515 62.674 32.703 62.465 C 32.833 62.415 32.977 62.415 33.107 62.465 C 33.225 62.419 33.356 62.419 33.475 62.465 L 35.641 64.632 L 38.983 60.958 L 25.979 47.806 L 22.488 43.578 C 22.004 43.015 21.553 42.428 21.128 41.816 C 19.146 38.952 19.771 36.602 20.245 36.159 C 19.601 35.5 19.348 34.553 19.587 33.661 L 18.483 28.592 L 18.191 28.592 L 18.925 27.894 M 18.925 25.357 C 18.252 25.357 17.606 25.623 17.122 26.091 L 16.388 26.828 C 15.514 27.708 15.407 29.091 16.132 30.096 L 16.905 33.77 C 16.811 34.712 16.96 35.661 17.345 36.528 C 16.92 38.912 17.523 41.368 18.998 43.287 C 19.497 43.98 20.036 44.64 20.612 45.27 L 24.067 49.423 L 34.539 60.04 C 34.068 59.767 33.539 59.616 32.997 59.6 C 32.177 59.59 31.393 59.924 30.829 60.517 C 30.244 61.089 29.917 61.869 29.912 62.687 C 29.922 63.269 30.087 63.838 30.388 64.339 C 29.896 64.014 29.32 63.848 28.734 63.862 C 27.923 63.848 27.143 64.168 26.566 64.742 C 25.401 65.953 25.401 67.867 26.566 69.078 L 28.809 71.282 C 28.857 71.396 28.933 71.497 29.029 71.574 L 34.611 77.197 C 35.08 77.692 35.733 77.971 36.415 77.969 C 37.004 77.971 37.577 77.762 38.031 77.382 L 43.87 72.679 L 47.141 75.911 L 51.33 80.063 C 52.142 80.873 53.069 81.554 54.087 82.084 C 54.444 82.289 54.85 82.388 55.261 82.377 C 55.645 82.384 56.023 82.297 56.364 82.123 L 60.884 79.916 L 93.542 109.308 L 87.775 115.885 C 87.476 116.212 87.27 116.621 87.188 117.061 C 86.929 118.692 87.479 120.348 88.657 121.506 C 90.027 122.686 91.519 123.721 93.102 124.594 C 93.485 124.805 93.916 124.917 94.352 124.922 C 94.925 124.919 95.481 124.725 95.933 124.37 L 104.197 117.943 C 104.668 118.318 105.25 118.526 105.853 118.53 C 106.526 118.539 107.175 118.272 107.653 117.796 L 108.386 117.061 C 108.869 116.585 109.144 115.939 109.158 115.26 C 109.168 114.652 108.943 114.058 108.534 113.608 L 115.001 105.303 C 115.626 104.498 115.699 103.391 115.184 102.51 C 114.314 100.933 113.292 99.446 112.134 98.066 C 111.162 97.084 109.841 96.53 108.46 96.521 L 107.689 96.521 C 107.258 96.607 106.855 96.797 106.514 97.073 L 99.937 102.878 L 70.546 70.218 L 72.749 65.699 C 73.136 64.976 73.136 64.107 72.749 63.384 C 72.218 62.388 71.553 61.475 70.765 60.665 L 66.576 56.477 L 63.345 53.168 L 68.049 47.512 C 68.93 46.544 68.93 45.062 68.049 44.094 L 62.388 38.51 L 62.095 38.253 L 59.889 36.048 C 59.324 35.465 58.536 35.143 57.724 35.167 C 56.91 35.157 56.128 35.476 55.554 36.048 C 54.61 37.043 54.444 38.549 55.15 39.722 C 54.66 39.402 54.085 39.234 53.497 39.246 C 52.691 39.255 51.914 39.568 51.33 40.128 C 50.385 41.115 50.189 42.605 50.852 43.802 L 40.051 33.734 L 35.825 30.134 C 35.181 29.567 34.493 29.051 33.77 28.592 C 32.25 27.414 30.396 26.744 28.477 26.68 C 27.977 26.623 27.473 26.623 26.973 26.68 C 26.279 26.426 25.541 26.328 24.803 26.386 L 24.217 26.386 L 20.542 25.614 C 20.118 25.299 19.601 25.132 19.073 25.138 L 18.925 25.357 Z" transform="matrix(-0.707107, 0.707107, -0.707107, -0.707107, 165.021622, 81.705643)"/>
  <circle class="cls-5" cx="63.951" cy="64.501" r="55.66" transform="matrix(-0.707107, 0.707107, -0.707107, -0.707107, 182.114075, 75.388908)"/>
</svg>
