<?xml version="1.0" encoding="utf-8"?>
<svg viewBox="0 0 125 125" width="125" height="125" xmlns="http://www.w3.org/2000/svg">
  <defs>
    <style>.cls-1{fill:#ede2b2;}.cls-2{fill:#596b6a;}.cls-3{fill:#dbcf9e;}.cls-4{fill:#c8eab2;}.cls-5{fill:#cae0e0;}.cls-6{fill:#bfb073;}.cls-7{fill:none;stroke:#ede2b2;stroke-miterlimit:10;stroke-width:0.35px;}</style>
  </defs>
  <path class="cls-1" d="M 69.362 110.732 C 69.022 110.732 68.699 110.596 68.463 110.356 L 64.839 106.733 C 64.573 106.478 64.436 106.116 64.464 105.747 L 65.419 87.52 L 60.059 82.302 L 40.988 101.284 C 40.748 101.52 40.426 101.656 40.091 101.662 C 39.745 101.656 39.414 101.523 39.162 101.284 L 32.554 94.648 C 32.276 94.388 32.136 94.013 32.178 93.633 L 35.28 61.291 L 34.815 60.798 C 32.775 58.08 31.01 55.167 29.542 52.102 C 28.902 50.974 28.411 50.016 28.091 49.525 C 27.541 48.568 25.803 45.698 24.904 44.539 L 22.441 41.641 C 19.92 38.744 18.239 36.598 17.891 36.048 C 17.542 35.497 16.76 33.931 16.529 33.439 C 14.428 31.112 12.491 28.644 10.732 26.049 C 8.773 22.888 7.151 19.526 5.893 16.022 C 5.736 15.552 5.861 15.036 6.211 14.69 C 6.452 14.447 6.77 14.306 7.11 14.282 C 7.252 14.258 7.4 14.258 7.545 14.282 C 11.037 15.569 14.381 17.23 17.514 19.239 C 20.101 21.006 22.572 22.943 24.904 25.036 C 25.396 25.267 26.73 25.903 27.512 26.397 C 28.294 26.889 30.092 28.425 33.105 30.946 L 36.004 33.411 C 36.786 34.019 38.467 35.092 40.988 36.598 C 41.481 36.919 42.437 37.409 43.568 38.047 C 46.628 39.525 49.538 41.291 52.262 43.322 L 52.755 43.785 L 85.27 40.771 C 85.611 40.759 85.941 40.896 86.17 41.149 L 92.806 47.755 C 93.046 48.005 93.182 48.338 93.182 48.685 C 93.175 49.019 93.041 49.341 92.806 49.581 L 73.823 68.567 L 79.04 73.927 L 97.326 72.969 C 97.673 72.965 98.008 73.102 98.254 73.347 L 101.848 76.94 C 102.124 77.225 102.251 77.621 102.196 78.012 L 101.905 80.533 C 101.858 80.818 101.727 81.08 101.529 81.288 L 92.835 89.983 C 92.328 90.48 91.515 90.48 91.009 89.983 L 90.254 89.055 L 88.837 90.476 L 88.661 90.476 L 89.532 91.664 C 89.952 92.145 89.952 92.862 89.532 93.344 L 88.488 94.358 L 89.559 95.43 C 90.091 95.924 90.091 96.765 89.559 97.257 L 88.952 97.865 C 88.713 98.108 88.393 98.244 88.053 98.242 C 87.707 98.248 87.369 98.111 87.126 97.865 L 86.052 96.792 L 85.04 97.836 C 84.792 98.082 84.459 98.218 84.111 98.212 C 83.84 98.212 83.573 98.12 83.359 97.952 L 82.17 97.081 C 82.179 97.14 82.179 97.2 82.17 97.257 L 80.75 98.676 L 81.59 99.487 C 82.086 99.996 82.086 100.806 81.59 101.314 L 72.895 110.008 C 72.687 110.206 72.424 110.339 72.143 110.383 L 69.621 110.703 L 69.362 110.732 Z" transform="matrix(-0.707107, 0.707107, -0.707107, -0.707107, 136.406174, 68.494713)"/>
  <path class="cls-2" d="M 7.08 15.578 C 10.472 16.81 13.726 18.395 16.79 20.301 C 19.377 22.131 21.846 24.125 24.179 26.274 C 24.179 26.274 25.918 27.084 26.787 27.634 C 27.656 28.185 34.177 33.633 35.163 34.474 C 36.149 35.314 38.497 36.677 40.263 37.75 C 44.075 39.696 47.761 41.873 51.304 44.269 L 52.204 45.169 L 85.155 42.01 L 91.791 48.646 L 71.91 68.527 L 78.633 75.194 L 97.443 74.208 L 101.065 77.83 L 100.746 80.382 L 92.053 89.076 L 88.257 85.279 L 90.227 87.132 L 87.908 89.423 L 81.533 82.989 L 88.691 92.523 L 86.748 94.465 L 88.718 96.465 L 88.402 96.755 L 88.111 97.073 L 86.111 95.103 L 84.17 97.046 L 74.49 90.032 L 81.04 96.581 L 78.633 98.727 L 76.547 96.697 L 80.344 100.493 L 71.65 109.187 L 69.099 109.508 L 65.476 105.885 L 66.695 87.132 L 60.028 80.641 L 40.148 100.522 L 33.51 93.885 L 36.671 60.934 L 35.771 60.035 C 33.409 56.442 31.27 52.707 29.367 48.849 C 28.295 47.08 26.904 44.819 26.091 43.748 C 25.28 42.675 19.572 36.154 19.021 35.286 C 18.471 34.416 17.776 32.677 17.776 32.677 C 15.688 30.34 13.752 27.869 11.978 25.288 C 10.009 22.233 8.371 18.978 7.08 15.578 M 7.08 13.001 C 5.311 13.003 4.07 14.746 4.647 16.419 C 5.955 20.013 7.636 23.462 9.661 26.707 C 11.425 29.294 13.36 31.765 15.456 34.097 C 15.745 34.706 16.325 35.893 16.79 36.677 C 17.253 37.459 18.499 38.851 21.512 42.472 L 23.889 45.372 C 24.47 46.124 25.512 47.748 26.991 50.239 C 27.28 50.702 27.772 51.631 28.381 52.762 C 29.926 55.936 31.77 58.953 33.888 61.775 L 30.989 93.654 C 30.903 94.415 31.168 95.172 31.713 95.712 L 38.352 102.319 C 39.348 103.325 40.976 103.325 41.974 102.319 L 60.028 84.236 L 64.144 88.031 L 63.216 105.681 C 63.185 106.405 63.457 107.11 63.97 107.622 L 67.593 111.245 C 68.076 111.729 68.735 111.999 69.419 111.999 L 69.736 111.999 L 72.288 111.708 C 72.847 111.62 73.366 111.355 73.765 110.955 L 82.461 102.26 C 83.289 101.441 83.454 100.165 82.865 99.161 C 83.271 99.389 83.732 99.51 84.2 99.508 C 84.885 99.522 85.546 99.25 86.026 98.753 L 86.197 98.928 C 87.195 99.934 88.825 99.934 89.82 98.928 L 90.227 98.727 L 90.545 98.406 C 91.551 97.41 91.551 95.782 90.545 94.784 L 90.227 94.465 C 91.084 93.636 91.252 92.323 90.633 91.307 C 91.018 91.535 91.458 91.655 91.908 91.655 C 92.589 91.642 93.24 91.373 93.734 90.9 L 102.427 82.207 C 102.828 81.807 103.091 81.288 103.181 80.729 L 103.471 78.177 C 103.586 77.39 103.317 76.591 102.746 76.034 L 99.124 72.41 C 98.635 71.935 97.982 71.666 97.298 71.657 L 79.532 72.642 L 75.737 68.527 L 93.82 50.442 C 94.826 49.445 94.826 47.817 93.82 46.819 L 87.068 40.184 C 86.585 39.699 85.925 39.431 85.241 39.431 L 85.01 39.431 L 53.276 42.327 C 50.454 40.209 47.437 38.367 44.263 36.822 C 43.132 36.214 42.204 35.719 41.742 35.43 C 39.25 33.953 37.626 32.908 36.872 32.33 L 33.974 29.953 C 30.383 27.054 28.787 25.607 28.179 25.229 C 27.571 24.853 26.209 24.186 25.599 23.898 C 23.267 21.802 20.796 19.865 18.21 18.099 C 14.964 16.092 11.515 14.43 7.921 13.145 C 7.643 13.101 7.358 13.101 7.08 13.145 L 7.08 13.001 Z" transform="matrix(-0.707107, 0.707107, -0.707107, -0.707107, 136.378891, 68.510017)"/>
  <path class="cls-3" d="M 59.295 29.689 L 58.396 28.792 C 54.85 26.436 51.162 24.296 47.355 22.387 L 46.225 21.719 C 46.838 24.499 46.753 27.389 45.965 30.123 C 43.628 32.719 41.089 35.12 38.371 37.312 C 39.619 39.848 41.089 42.261 42.776 44.528 L 43.676 45.426 L 40.515 78.262 L 47.153 84.898 L 52.949 79.103 C 52.074 76.833 51.754 74.39 52.02 71.974 C 52.891 65.8 59.904 63.279 63.411 59.859 C 66.918 56.441 69.844 43.976 70.221 34.645 C 70.231 32.689 69.986 30.742 69.498 28.848 L 59.295 29.689 Z" transform="matrix(-0.707107, 0.707107, -0.707107, -0.707107, 130.384125, 52.610126)"/>
  <path class="cls-4" d="M 43.639 85.731 L 34.135 86.63 C 34.076 87.17 34.076 87.715 34.135 88.252 C 34.957 92.166 36.983 95.725 39.931 98.426 C 40.394 98.803 41.439 99.498 42.539 100.222 L 50.421 92.368 L 43.639 85.731 Z" transform="matrix(-0.707107, 0.707107, -0.707107, -0.707107, 137.879608, 128.8414)"/>
  <path class="cls-3" d="M 17.807 68.753 L 19.255 66.579 L 18.038 63.943 L 20.473 61.507 L 22.415 63.247 L 32.007 53.653 L 32.355 50.958 L 28.588 47.134 L 8.619 48.176 L 3.752 43.192 C 2.914 44.053 2.203 45.03 1.635 46.089 C -0.306 49.828 0.854 56.116 -1.582 59.856 C -2.336 61.014 -3.147 62.232 -4.073 63.565 L -4.974 80.779 L -1.118 84.635 L 1.576 84.229 L 11.229 74.724 L 9.402 72.839 L 11.981 70.637 L 14.473 71.39 L 16.618 70.086 L 18.125 71.564 L 18.965 71.1 L 19.315 70.781 L 17.807 68.753 Z" transform="matrix(-0.707107, 0.707107, -0.707107, -0.707107, 68.564812, 99.426529)"/>
  <path class="cls-5" d="M 115.008 61.027 C 111.946 59.117 108.693 57.535 105.299 56.302 C 106.533 59.693 108.116 62.949 110.023 66.012 C 110.632 66.911 111.298 67.838 111.993 68.736 L 117.79 62.94 C 116.834 62.303 115.994 61.635 115.008 61.027 Z" transform="matrix(-0.707107, 0.707107, -0.707107, -0.707107, 234.625977, 27.852734)"/>
  <polyline class="cls-2" points="19.243 66.313 21.765 62.951 13.622 54.633 6.724 61.531 15.592 70.08 18.636 67.414" transform="matrix(-0.707107, 0.707107, -0.707107, -0.707107, 68.409584, 96.376823)"/>
  <path class="cls-6" d="M 60.013 84.962 L 55.986 80.877 L 55.377 81.485 L 43.785 69.746 C 41.364 68.518 39.091 67.022 37.004 65.284 L 17.529 45.982 L 13.878 42.33 L 18.891 37.317 L 22.543 40.969 L 41.843 60.446 C 43.601 62.572 45.13 64.884 46.394 67.342 L 57.985 78.934 L 57.377 79.515 L 61.493 83.659 L 64.245 85.194 L 63.753 87.049 L 62.363 87.804 L 60.013 84.962 Z" transform="matrix(-0.707107, 0.707107, -0.707107, -0.707107, 110.919113, 79.176804)"/>
  <path class="cls-1" d="M 19.136 37.937 L 22.441 41.241 L 41.714 60.687 C 43.434 62.791 44.939 65.065 46.206 67.469 L 57.537 78.831 L 56.957 79.438 L 61.449 83.902 L 63.97 85.351 L 63.624 86.597 L 62.783 87.06 L 60.812 84.539 L 56.376 80.048 L 55.769 80.627 L 44.408 69.294 C 42.004 68.028 39.731 66.523 37.626 64.802 L 18.181 45.53 L 14.877 42.227 L 17.021 40.081 L 19.166 37.937 M 19.166 36.489 L 18.441 37.213 L 16.296 39.357 L 14.153 41.502 L 13.428 42.227 L 14.153 42.951 L 17.455 46.254 L 36.901 65.528 C 39.036 67.299 41.348 68.844 43.799 70.135 L 55.044 81.38 L 55.769 82.104 L 56.376 81.497 L 60.087 85.264 L 61.97 87.67 L 62.521 88.366 L 63.275 87.959 L 64.116 87.496 L 64.52 87.292 L 64.52 86.857 L 64.839 85.612 L 65.042 84.829 L 64.346 84.454 L 62.172 83.09 L 58.406 79.468 L 59.014 78.859 L 58.29 78.136 L 47.047 66.889 C 45.756 64.434 44.211 62.123 42.437 59.992 L 23.164 40.546 L 19.862 37.213 L 19.136 36.489 L 19.166 36.489 Z" transform="matrix(-0.707107, 0.707107, -0.707107, -0.707107, 111.121239, 78.827072)"/>
  <path class="cls-2" d="M 99.628 64.96 L 94.729 60.062 C 92.71 58.277 90.433 56.803 87.979 55.688 L 86.935 56.555 L 85.977 57.512 C 87.114 60.001 88.618 62.309 90.441 64.352 L 95.338 69.249 L 99.628 64.96 Z" transform="matrix(-0.707107, 0.707107, -0.707107, -0.707107, 202.595673, 41.019127)"/>
  <path class="cls-2" d="M 70.711 59.3 L 81.288 69.879 C 83.869 70.602 86.261 68.264 85.602 65.671 C 85.596 65.644 85.587 65.616 85.578 65.589 L 75.057 54.953 L 70.711 59.3 Z" transform="matrix(-0.707107, 0.707107, -0.707107, -0.707107, 177.697784, 51.360287)"/>
  <path class="cls-6" d="M 73.046 83.559 C 71.853 82.821 70.719 81.986 69.655 81.068 C 67.542 79.126 43.573 55.739 43.573 55.505 L 41.864 53.824 L 44.096 54.665 C 48.861 56.314 53.426 58.483 57.716 61.129 C 59.629 62.723 67.134 70.113 73.772 76.632 L 77.016 79.823 L 73.425 83.734 L 73.046 83.559 Z" transform="matrix(-0.707107, 0.707107, -0.707107, -0.707107, 150.104523, 75.382675)"/>
  <path class="cls-1" d="M 45.511 55.192 C 50.27 56.857 54.834 59.021 59.134 61.654 C 61.307 63.451 70.958 72.987 78.057 79.972 L 75.16 83.19 C 73.991 82.458 72.875 81.648 71.827 80.754 C 69.681 78.785 45.744 55.192 45.744 55.192 M 41.396 52.497 L 44.816 55.83 C 45.802 56.787 68.899 79.45 70.901 81.392 C 71.98 82.332 73.134 83.184 74.348 83.942 L 75.103 84.406 L 75.681 83.768 L 78.579 80.551 L 79.246 79.828 L 78.521 79.132 L 75.623 76.234 C 68.957 69.685 61.393 62.265 59.451 60.641 C 55.174 58.024 50.627 55.878 45.889 54.235 L 41.396 52.497 Z" transform="matrix(-0.707107, 0.707107, -0.707107, -0.707107, 151.376907, 74.20063)"/>
  <path class="cls-6" d="M 67.268 70.608 C 60.776 64.029 53.415 56.553 51.851 54.64 C 49.175 50.303 46.989 45.686 45.33 40.873 L 44.489 38.642 L 46.17 40.351 C 46.401 40.583 69.789 64.464 71.732 66.58 C 72.641 67.648 73.473 68.783 74.223 69.971 L 74.455 70.347 L 70.543 73.943 L 67.268 70.608 Z" transform="matrix(-0.707107, 0.707107, -0.707107, -0.707107, 141.329865, 54.044254)"/>
  <path class="cls-1" d="M 46.878 41.495 C 46.878 41.495 70.468 65.579 72.439 67.726 C 73.331 68.773 74.144 69.887 74.873 71.058 L 71.656 73.955 C 64.672 66.856 55.137 57.205 53.341 55.032 C 50.709 50.731 48.54 46.166 46.878 41.409 M 44.181 37.381 L 45.805 41.872 C 47.492 46.73 49.707 51.385 52.413 55.755 C 54.036 57.699 61.455 65.263 68.004 71.928 L 70.904 74.825 L 71.599 75.55 L 72.322 74.883 L 75.539 71.986 L 76.176 71.406 L 75.713 70.652 C 74.964 69.377 74.111 68.165 73.163 67.03 C 71.22 64.884 48.558 41.786 47.603 40.946 L 44.181 37.381 Z" transform="matrix(-0.707107, 0.707107, -0.707107, -0.707107, 142.658264, 53.840015)"/>
  <path class="cls-2" d="M 7.08 15.578 C 10.472 16.81 13.726 18.395 16.79 20.301 C 19.377 22.131 21.846 24.125 24.179 26.274 C 24.179 26.274 25.918 27.084 26.787 27.634 C 27.656 28.185 34.177 33.633 35.163 34.474 C 36.149 35.314 38.497 36.677 40.263 37.75 C 44.075 39.696 47.761 41.873 51.304 44.269 L 52.204 45.169 L 85.155 42.01 L 91.791 48.646 L 71.91 68.527 L 78.633 75.194 L 97.443 74.208 L 101.065 77.83 L 100.746 80.382 L 92.053 89.076 L 90.227 87.132 L 87.908 89.423 L 81.533 82.989 L 88.691 92.523 L 86.748 94.465 L 88.718 96.465 L 88.402 96.755 L 88.111 97.073 L 86.111 95.103 L 84.17 97.046 L 74.49 90.032 L 81.04 96.581 L 78.633 98.727 L 80.344 100.493 L 71.65 109.187 L 69.099 109.508 L 65.476 105.885 L 66.695 87.132 L 60.028 80.641 L 40.148 100.522 L 33.51 93.885 L 36.671 60.934 L 35.771 60.035 C 33.409 56.442 31.27 52.707 29.367 48.849 C 28.295 47.08 26.904 44.819 26.091 43.748 C 25.28 42.675 19.572 36.154 19.021 35.286 C 18.471 34.416 17.776 32.677 17.776 32.677 C 15.688 30.34 13.752 27.869 11.978 25.288 C 10.009 22.233 8.371 18.978 7.08 15.578 M 7.08 13.001 C 5.311 13.003 4.07 14.746 4.647 16.419 C 5.955 20.013 7.636 23.462 9.661 26.707 C 11.425 29.294 13.36 31.765 15.456 34.097 C 15.745 34.706 16.325 35.893 16.79 36.677 C 17.253 37.459 18.499 38.851 21.512 42.472 L 23.889 45.372 C 24.47 46.124 25.512 47.748 26.991 50.239 C 27.28 50.702 27.772 51.631 28.381 52.762 C 29.926 55.936 31.77 58.953 33.888 61.775 L 30.989 93.654 C 30.903 94.415 31.168 95.172 31.713 95.712 L 38.352 102.319 C 39.348 103.325 40.976 103.325 41.974 102.319 L 60.028 84.236 L 64.144 88.031 L 63.216 105.681 C 63.185 106.405 63.457 107.11 63.97 107.622 L 67.593 111.245 C 68.076 111.729 68.735 111.999 69.419 111.999 L 69.736 111.999 L 72.288 111.708 C 72.847 111.62 73.366 111.355 73.765 110.955 L 82.461 102.26 C 83.289 101.441 83.454 100.165 82.865 99.161 C 83.271 99.389 83.732 99.51 84.2 99.508 C 84.885 99.522 85.546 99.25 86.026 98.753 L 86.197 98.928 C 87.195 99.934 88.825 99.934 89.82 98.928 L 90.227 98.727 L 90.545 98.406 C 91.551 97.41 91.551 95.782 90.545 94.784 L 90.227 94.465 C 91.084 93.636 91.252 92.323 90.633 91.307 C 91.018 91.535 91.458 91.655 91.908 91.655 C 92.592 91.648 93.247 91.38 93.734 90.9 L 102.427 82.207 C 102.828 81.807 103.091 81.288 103.181 80.729 L 103.471 78.177 C 103.586 77.39 103.317 76.591 102.746 76.034 L 99.124 72.41 C 98.635 71.935 97.982 71.666 97.298 71.657 L 79.532 72.642 L 75.737 68.527 L 93.82 50.442 C 94.826 49.445 94.826 47.817 93.82 46.819 L 87.068 40.184 C 86.585 39.699 85.925 39.431 85.241 39.431 L 85.01 39.431 L 53.276 42.327 C 50.454 40.209 47.437 38.367 44.263 36.822 C 43.132 36.214 42.204 35.719 41.742 35.43 C 39.25 33.953 37.626 32.908 36.872 32.33 L 33.974 29.953 C 30.383 27.054 28.787 25.607 28.179 25.229 C 27.571 24.853 26.209 24.186 25.599 23.898 C 23.267 21.802 20.796 19.865 18.21 18.099 C 14.964 16.092 11.515 14.43 7.921 13.145 C 7.643 13.101 7.358 13.101 7.08 13.145 L 7.08 13.001 Z" transform="matrix(-0.707107, 0.707107, -0.707107, -0.707107, 136.378891, 68.510017)"/>
  <rect class="cls-2" x="29.271" y="72.742" width="1.275" height="23.388" transform="matrix(0, 1, -1, 0, 129.311768, -5.966113)"/>
  <rect class="cls-2" x="83.783" y="18.2" width="1.275" height="23.388" transform="matrix(0, 1, -1, 0, 74.781273, 16.637083)"/>
  <path class="cls-7" d="M 68.155 64.905 C 69.563 65.402 71.131 64.975 72.097 63.833 C 73.237 62.868 73.664 61.299 73.168 59.891" transform="matrix(-0.707107, 0.707107, -0.707107, -0.707107, 164.995438, 56.657406)"/>
</svg>