<?xml version="1.0" encoding="utf-8"?>
<svg viewBox="0 0 150 150" width="150" height="150" xmlns="http://www.w3.org/2000/svg">
  <defs>
    <style>.cls-1{fill:#cae0e0;}.cls-2{fill:#596b6a;}.cls-3{fill:#a8c1c0;}</style>
  </defs>
  <path class="cls-1" d="M 113.344 137.452 C 112.982 137.452 112.637 137.309 112.384 137.046 L 109.395 134.019 C 108.23 133.051 107.778 131.471 108.25 130.031 C 108.544 129.181 114.195 116.147 116.151 111.57 C 111.499 108.061 90.304 91.779 85.061 86.683 L 83.584 85.206 L 82.735 85.206 L 70.55 97.391 L 37.615 120.983 C 38.981 122.451 39.949 124.245 40.421 126.191 C 40.581 127.028 39.945 127.807 39.093 127.814 L 38.76 127.814 C 36.441 127.213 34.355 125.925 32.779 124.123 L 26.168 117.587 C 24.449 115.974 23.229 113.894 22.661 111.606 C 22.55 111.163 22.696 110.698 23.03 110.387 C 23.281 110.13 23.628 109.981 23.99 109.981 L 24.248 109.981 C 26.453 110.527 28.459 111.679 30.046 113.303 C 32.558 110.61 46.108 95.692 53.528 87.459 L 55.56 82.326 L 47.918 74.719 C 44.888 71.729 41.824 66.373 43.67 64.491 C 44.092 64.073 44.665 63.848 45.259 63.862 C 48.593 64.45 51.635 66.14 53.899 68.662 L 62.28 77.009 L 68.558 69.845 L 64.606 65.782 C 57.701 58.878 49.468 45.882 52.644 42.706 C 53.205 42.193 53.949 41.927 54.71 41.967 C 58.958 41.967 69.148 48.133 75.684 54.668 L 79.819 58.767 L 87.204 52.491 L 78.488 44.146 C 75.499 41.118 72.398 35.765 74.28 33.918 C 74.648 33.545 75.155 33.332 75.684 33.327 C 79.061 33.866 82.167 35.517 84.508 38.018 L 92.15 45.66 L 97.284 43.666 L 123.131 20.182 C 121.493 18.585 120.331 16.565 119.771 14.348 C 119.699 13.91 119.837 13.459 120.139 13.131 C 120.405 12.873 120.762 12.728 121.135 12.725 L 121.358 12.725 C 123.673 13.357 125.761 14.637 127.375 16.417 L 134.021 23.247 C 135.803 24.86 137.082 26.951 137.715 29.266 C 137.782 29.708 137.643 30.157 137.344 30.485 C 137.082 30.728 136.739 30.86 136.384 30.853 L 136.126 30.853 C 134.171 30.369 132.367 29.406 130.884 28.047 L 107.438 60.613 L 95.104 72.983 L 95.104 73.835 L 96.581 75.309 C 101.64 80.37 117.924 101.747 121.468 106.363 C 125.973 104.406 139.006 98.757 139.931 98.499 C 141.358 98.019 142.939 98.458 143.918 99.606 L 146.909 102.597 C 147.197 102.875 147.347 103.268 147.315 103.667 C 147.278 104.054 147.093 104.413 146.798 104.663 L 130.404 117.292 C 130.898 118.159 131.309 119.076 131.621 120.023 C 131.761 120.516 131.618 121.039 131.253 121.391 C 130.998 121.654 130.654 121.797 130.293 121.797 L 129.886 121.797 C 128.949 121.494 128.047 121.094 127.191 120.614 C 124.2 124.307 114.526 136.972 114.526 136.972 C 114.301 137.3 113.925 137.497 113.53 137.49 L 113.344 137.452 Z" transform="matrix(-0.707107, 0.707107, -0.707107, -0.707107, 198.165009, 68.132561)"/>
  <path class="cls-2" d="M 121.261 14.039 C 123.285 14.578 125.117 15.678 126.541 17.214 L 133.187 23.862 C 134.724 25.285 135.824 27.117 136.362 29.142 C 134.387 28.582 132.6 27.496 131.194 26.001 L 130.825 25.633 L 106.456 59.677 L 93.865 72.231 L 93.865 74.225 L 95.785 76.107 C 101.322 81.682 121.15 108.009 121.15 108.009 C 121.15 108.009 139.612 100.034 140.387 99.738 C 140.658 99.686 140.929 99.686 141.2 99.738 C 141.898 99.798 142.54 100.145 142.972 100.698 L 145.962 103.689 L 128.536 116.871 C 129.333 117.883 129.934 119.034 130.307 120.269 C 129.066 119.891 127.914 119.279 126.91 118.458 L 113.469 135.888 L 110.48 132.896 C 109.653 132.319 109.316 131.257 109.667 130.311 C 110 129.425 117.976 111.074 117.976 111.074 C 117.976 111.074 91.76 91.247 86.147 85.856 C 85.556 85.265 84.93 84.6 84.265 83.973 L 82.307 83.973 L 69.716 96.527 L 35.673 120.638 L 36.042 121.007 C 37.608 122.479 38.711 124.381 39.218 126.471 C 37.197 125.943 35.367 124.854 33.938 123.334 L 27.256 116.465 C 25.733 115.035 24.645 113.205 24.116 111.185 C 26.14 111.724 27.97 112.823 29.396 114.36 L 30.282 115.247 C 30.411 114.992 30.574 114.759 30.762 114.545 C 31.907 113.438 54.836 88.107 54.836 88.107 L 57.347 81.905 L 49.002 73.598 C 45.532 70.161 44.056 66.212 44.756 65.288 C 44.96 65.214 45.181 65.214 45.385 65.288 C 48.345 65.9 51.033 67.441 53.065 69.681 L 62.48 79.063 L 70.53 69.83 L 65.545 64.808 C 57.938 57.054 51.698 45.424 53.656 43.504 C 53.966 43.25 54.363 43.131 54.762 43.172 C 58.456 43.172 68.092 48.822 74.776 55.466 C 76.436 57.165 78.136 58.826 79.833 60.452 L 89.065 52.401 L 79.501 43.024 C 76.067 39.553 74.589 35.416 75.292 34.717 C 75.44 34.598 75.621 34.536 75.81 34.532 C 78.776 35.149 81.48 36.687 83.524 38.925 L 91.796 47.233 L 98 44.797 C 98 44.797 123.33 21.83 124.474 20.721 C 124.647 20.505 124.877 20.338 125.138 20.241 L 124.4 19.392 C 122.881 17.945 121.796 16.102 121.261 14.077 M 121.261 11.344 C 120.526 11.344 119.824 11.636 119.305 12.157 C 118.666 12.794 118.388 13.706 118.564 14.592 C 119.034 16.613 119.984 18.485 121.336 20.056 L 96.669 42.433 L 92.61 44.022 L 85.594 37.005 C 83.03 34.196 79.57 32.353 75.81 31.799 C 74.874 31.758 73.966 32.108 73.298 32.759 C 70.564 35.492 74.221 41.622 77.507 44.944 L 84.892 52.328 L 79.869 56.759 L 76.621 53.546 C 69.789 46.679 59.305 40.439 54.689 40.439 C 53.559 40.387 52.459 40.786 51.625 41.546 C 47.044 46.125 58.345 61.264 63.587 66.544 L 66.8 69.757 L 62.332 74.778 L 54.947 67.393 C 52.433 64.613 49.047 62.777 45.347 62.186 C 44.404 62.172 43.493 62.516 42.8 63.146 C 40.105 65.841 43.722 72.009 47.009 75.333 L 54.061 82.347 L 52.436 86.409 L 30.098 111.296 C 28.518 109.933 26.63 108.969 24.596 108.489 L 24.116 108.489 C 23.393 108.496 22.702 108.788 22.196 109.303 C 21.549 109.923 21.259 110.823 21.421 111.703 C 22.063 114.279 23.419 116.621 25.336 118.458 L 31.981 125.105 C 33.865 127.032 36.261 128.377 38.884 128.983 L 39.364 128.983 C 41.058 128.959 42.331 127.439 42.061 125.77 C 41.656 124.064 40.916 122.458 39.882 121.042 L 71.452 98.594 L 71.785 98.298 L 83.194 86.667 L 84.116 87.591 C 88.989 92.465 108.522 107.418 114.467 111.96 C 111.81 118.127 107.267 128.65 107.082 129.463 C 106.404 131.39 106.995 133.539 108.56 134.854 L 111.549 137.842 C 112.057 138.36 112.746 138.652 113.469 138.656 L 113.656 138.656 C 114.443 138.622 115.17 138.246 115.65 137.623 L 127.501 122.114 C 128.13 122.42 128.783 122.669 129.458 122.854 C 129.713 122.903 129.979 122.903 130.234 122.854 C 131.994 122.854 133.298 121.21 132.892 119.494 C 132.693 118.754 132.419 118.038 132.08 117.351 L 147.551 105.425 C 148.186 104.952 148.582 104.221 148.621 103.431 C 148.658 102.649 148.362 101.884 147.81 101.327 L 144.818 98.336 C 143.866 97.291 142.537 96.671 141.126 96.6 C 140.546 96.593 139.969 96.694 139.427 96.896 C 138.616 97.154 128.13 101.696 121.962 104.28 C 117.421 98.298 102.467 78.802 97.594 73.929 L 96.669 72.969 L 108.301 61.337 C 108.419 61.231 108.519 61.11 108.596 60.968 L 131.194 29.656 C 132.581 30.713 134.182 31.459 135.882 31.837 L 136.4 31.837 C 138.101 31.844 139.382 30.293 139.058 28.624 C 138.45 26.043 137.086 23.705 135.145 21.904 L 128.498 15.256 C 126.683 13.322 124.33 11.972 121.741 11.382 L 121.261 11.382 L 121.261 11.344 Z" transform="matrix(-0.707107, 0.707107, -0.707107, -0.707107, 198.137924, 67.928589)"/>
  <path class="cls-2" d="M 110.178 68.882 L 112.725 71.431 L 111.173 73.018 C 110.55 73.766 110.154 74.676 110.029 75.639 L 107.333 73.793 C 107.198 72.806 107.462 71.811 108.073 71.024 L 110.178 68.882 Z" transform="matrix(-0.707107, 0.707107, -0.707107, -0.707107, 238.897675, 45.566345)"/>
  <polygon class="cls-2" points="107.681 68.479 109.601 69.81 109.194 70.214 107.681 68.479" transform="matrix(-0.707107, 0.707107, -0.707107, -0.707107, 234.497162, 41.561089)"/>
  <ellipse class="cls-2" cx="12.45" cy="15.34" rx="0.48" ry="1.773" transform="matrix(0, 1, -1, 0, 120.588821, 56.48785)"/>
  <ellipse class="cls-2" cx="14.27" cy="17.15" rx="0.48" ry="1.773" transform="matrix(0, 1, -1, 0, 112.948196, 54.704063)"/>
  <ellipse class="cls-2" cx="15.06" cy="17.94" rx="0.48" ry="1.773" transform="matrix(0, 1, -1, 0, 109.620262, 53.906822)"/>
  <ellipse class="cls-2" cx="15.85" cy="18.73" rx="0.48" ry="1.773" transform="matrix(0, 1, -1, 0, 106.240105, 53.109589)"/>
  <ellipse class="cls-2" cx="16.64" cy="19.53" rx="0.48" ry="1.773" transform="matrix(0, 1, -1, 0, 102.885262, 52.312359)"/>
  <ellipse class="cls-2" cx="17.44" cy="20.32" rx="0.48" ry="1.773" transform="matrix(0, 1, -1, 0, 99.55732, 51.542046)"/>
  <ellipse class="cls-2" cx="20.4" cy="23" rx="0.48" ry="1.773" transform="matrix(0, 1, -1, 0, 87.51181, 49.302826)"/>
  <rect class="cls-2" x="17.318" y="57.969" width="16.874" height="0.775" transform="matrix(0, 1, -1, 0, 176.718735, 27.667992)"/>
  <path class="cls-2" d="M 106.651 77.965 L 109.163 80.513 L 110.786 78.962 C 111.528 78.36 112.421 77.98 113.371 77.856 L 111.525 75.159 C 110.55 75.031 109.567 75.296 108.793 75.898 L 106.651 77.965 Z" transform="matrix(-0.707107, 0.707107, -0.707107, -0.707107, 242.827744, 55.057941)"/>
  <polygon class="cls-2" points="107.775 79.8 109.103 81.72 109.508 81.351 107.775 79.8" transform="matrix(-0.707107, 0.707107, -0.707107, -0.707107, 242.568588, 61.044804)"/>
  <ellipse class="cls-2" cx="14.78" cy="13.01" rx="0.48" ry="1.773" transform="matrix(0, 1, -1, 0, 118.272202, 66.337845)"/>
  <ellipse class="cls-2" cx="16.59" cy="14.82" rx="0.48" ry="1.773" transform="matrix(0, 1, -1, 0, 110.631554, 64.527138)"/>
  <ellipse class="cls-2" cx="17.39" cy="15.61" rx="0.48" ry="1.773" transform="matrix(0, 1, -1, 0, 107.277519, 63.730721)"/>
  <ellipse class="cls-2" cx="18.18" cy="16.41" rx="0.48" ry="1.773" transform="matrix(0, 1, -1, 0, 103.922668, 62.933487)"/>
  <ellipse class="cls-2" cx="18.97" cy="17.2" rx="0.48" ry="1.773" transform="matrix(0, 1, -1, 0, 100.568619, 62.162346)"/>
  <ellipse class="cls-2" cx="19.76" cy="17.99" rx="0.48" ry="1.773" transform="matrix(0, 1, -1, 0, 97.214577, 61.339012)"/>
  <ellipse class="cls-2" cx="22.44" cy="20.95" rx="0.48" ry="1.773" transform="matrix(0, 1, -1, 0, 85.459549, 57.928215)"/>
  <path class="cls-1" d="M 93.743 12.766 C 93.743 12.766 70.814 38.095 69.668 39.202 C 68.881 39.813 68.881 40.997 69.668 41.602 L 73.878 45.775 L 108.623 21.038 L 93.743 12.766 Z" transform="matrix(-0.707107, 0.707107, -0.707107, -0.707107, 172.374435, -12.85883)"/>
  <path class="cls-1" d="M 80.623 140.569 L 105.361 105.785 L 101.153 101.615 C 100.561 100.826 99.381 100.826 98.79 101.615 C 97.646 102.722 72.317 125.689 72.317 125.689 L 80.623 140.569 Z" transform="matrix(-0.707107, 0.707107, -0.707107, -0.707107, 237.073425, 143.393219)"/>
  <path class="cls-3" d="M 117.433 60.051 L 108.018 50.672 C 104.546 47.202 100.633 45.724 99.709 46.426 L 115.365 62.118 L 117.433 60.051 Z" transform="matrix(-0.707107, 0.707107, -0.707107, -0.707107, 223.658157, 15.731416)"/>
  <path class="cls-3" d="M 114.578 104.683 L 105.09 95.302 C 101.656 91.834 100.178 87.698 100.88 86.996 L 116.536 102.652 L 114.578 104.683 Z" transform="matrix(-0.707107, 0.707107, -0.707107, -0.707107, 253.199402, 86.800369)"/>
  <rect class="cls-2" x="47.889" y="27.398" width="16.874" height="0.775" transform="matrix(0, -1, 1, 0, 90.534081, 153.015701)"/>
  <path class="cls-2" d="M 120.84 95.386 L 116.595 99.668 C 115.044 96.862 114.564 94.537 115.155 93.946 C 115.744 93.353 118.035 93.834 120.84 95.386 Z" transform="matrix(-0.707107, 0.707107, -0.707107, -0.707107, 269.591614, 81.699875)"/>
  <path class="cls-2" d="M 124.481 72.507 C 123.706 73.282 123.963 75.314 124.961 78.047 L 130.019 72.987 C 127.287 71.954 125.367 71.696 124.481 72.507 Z" transform="matrix(-0.707107, 0.707107, -0.707107, -0.707107, 269.902008, 38.278027)"/>
  <path class="cls-1" d="M 99.274 13.94 C 98.734 11.915 97.635 10.086 96.098 8.66 L 89.452 2.015 C 88.053 0.408 86.217 -0.759 84.172 -1.346 L 99.274 13.94 Z" transform="matrix(-0.707107, 0.707107, -0.707107, -0.707107, 161.0336, -54.108303)"/>
  <path class="cls-1" d="M 84.109 136.248 C 84.638 138.29 85.726 140.143 87.247 141.602 L 94.043 148.211 C 95.493 149.73 97.33 150.816 99.357 151.351 L 84.109 136.248 Z" transform="matrix(-0.707107, 0.707107, -0.707107, -0.707107, 258.279633, 180.616074)"/>
  <path class="cls-2" d="M 116.595 56.199 L 120.581 52.211 C 117.96 50.771 115.781 50.291 115.228 50.844 C 114.675 51.399 115.155 53.724 116.595 56.199 Z" transform="matrix(-0.707107, 0.707107, -0.707107, -0.707107, 238.851257, 7.884123)"/>
</svg>