<?xml version="1.0" encoding="utf-8"?>
<svg viewBox="0 0 150 150" width="150" height="150" xmlns="http://www.w3.org/2000/svg">
  <defs>
    <style>.cls-1{fill:#ede2b2;}.cls-2{fill:#596b6a;}.cls-3{fill:#dbcf9e;}.cls-4{fill:none;stroke:#ede2b2;stroke-miterlimit:10;stroke-width:.937;}</style>
  </defs>
  <path class="cls-1" d="M 88.626 123.234 C 87.167 122.915 85.837 122.182 84.789 121.123 C 84.789 121.123 82.025 118.17 83.177 116.596 C 83.177 116.289 89.086 109.534 92.272 105.736 C 87.435 101.323 66.14 81.906 62.724 78.643 L 60.69 78.952 L 60.46 78.952 C 60.107 78.947 59.769 78.794 59.539 78.529 L 58.464 77.684 L 53.667 78.414 L 53.475 78.414 C 53.13 78.406 52.799 78.272 52.555 78.03 L 38.433 63.909 C 37.988 63.486 37.907 62.807 38.241 62.298 L 37.973 62.028 C 37.774 62.17 37.528 62.239 37.282 62.221 C 36.933 62.232 36.595 62.093 36.362 61.837 L 35.594 61.108 C 35.356 60.844 35.218 60.501 35.21 60.149 C 35.218 59.9 35.298 59.661 35.44 59.458 L 24.734 48.752 C 21.004 45.532 18.33 41.268 17.059 36.51 C 16.561 33.786 17.452 30.993 19.438 29.065 C 20.993 27.45 23.146 26.549 25.387 26.571 C 29.224 26.571 33.981 29.181 39.124 34.246 L 49.831 44.954 C 50.042 44.879 50.272 44.879 50.483 44.954 C 50.84 44.944 51.185 45.083 51.442 45.336 L 52.171 46.103 C 52.628 46.514 52.724 47.194 52.401 47.716 L 52.632 47.946 C 52.843 47.826 53.081 47.761 53.322 47.755 C 53.683 47.761 54.029 47.915 54.281 48.175 L 68.364 62.259 C 68.676 62.554 68.817 62.983 68.748 63.409 L 67.98 68.207 L 68.903 69.089 C 69.205 69.404 69.331 69.85 69.248 70.279 C 69.248 70.279 69.055 71.43 68.941 72.312 C 72.201 75.804 91.619 96.987 96.032 101.823 L 106.891 92.728 C 107.172 92.562 107.486 92.469 107.813 92.458 C 109.186 92.704 110.444 93.375 111.421 94.377 C 111.421 94.377 114.643 97.754 113.069 99.328 L 104.781 108.575 L 105.011 108.805 C 105.651 109.692 105.94 110.787 105.818 111.876 L 106.968 113.027 C 108 114.082 108.507 115.548 108.349 117.019 C 108.281 117.644 107.786 118.139 107.161 118.208 C 105.753 118.291 104.371 117.809 103.323 116.863 L 102.172 115.675 L 101.827 115.675 C 100.901 115.709 99.993 115.425 99.255 114.868 L 98.987 114.639 L 89.739 122.774 C 89.428 123.042 89.037 123.204 88.626 123.234 Z" transform="matrix(-0.707107, 0.707107, -0.707107, -0.707107, 164.289047, 81.753853)"/>
  <path class="cls-2" d="M 25.153 28.034 C 28.222 28.034 32.367 29.838 37.969 35.401 L 49.481 46.914 L 50.171 46.183 L 50.939 46.951 L 50.248 47.642 L 52.32 49.752 L 53.011 49.023 L 66.289 62.262 L 67.132 63.144 L 66.25 68.595 L 67.632 69.976 C 67.632 69.976 67.324 71.817 67.248 72.699 C 68.207 73.659 95.606 103.59 95.606 103.59 L 107.348 93.729 C 108.366 94.005 109.294 94.55 110.034 95.303 C 110.878 96.146 112.03 98.027 111.684 98.372 C 111.34 98.718 102.475 108.58 102.475 108.58 L 103.625 109.732 C 104.095 110.478 104.182 111.407 103.856 112.225 L 105.583 113.952 C 106.278 114.716 106.635 115.725 106.581 116.753 L 106.35 116.753 C 105.411 116.741 104.508 116.389 103.818 115.756 L 102.052 114.029 C 101.796 114.178 101.5 114.247 101.208 114.22 C 100.629 114.235 100.057 114.089 99.559 113.798 L 98.445 112.647 C 98.445 112.647 88.507 121.511 88.2 121.857 L 88.009 121.857 C 86.923 121.546 85.932 120.962 85.13 120.169 C 84.285 119.325 83.365 117.673 83.634 117.328 C 83.902 116.983 93.687 105.586 93.687 105.586 C 93.687 105.586 63.756 78.187 62.988 77.228 C 62.106 77.228 60.264 77.613 60.264 77.613 L 58.883 76.231 L 53.434 77.074 L 52.59 76.231 L 39.312 62.991 L 40.042 62.262 L 37.969 60.19 L 37.24 60.92 L 36.511 60.152 L 37.201 59.461 L 25.689 47.949 C 15.865 38.355 17.401 32.868 20.125 30.144 C 21.441 28.786 23.257 28.022 25.153 28.034 M 25.153 25.386 C 19.082 25.442 14.504 30.916 15.52 36.898 C 16.779 41.941 19.58 46.464 23.541 49.829 L 33.671 59.96 C 33.571 60.769 33.852 61.58 34.439 62.147 L 35.168 62.915 C 35.547 63.284 36.028 63.538 36.55 63.645 C 36.637 64.155 36.875 64.624 37.24 64.986 L 50.402 78.226 L 51.246 79.069 C 51.745 79.566 52.421 79.837 53.126 79.837 L 53.549 79.837 L 57.654 79.185 L 58.077 79.607 C 58.576 80.102 59.251 80.375 59.957 80.375 L 60.417 80.375 L 61.761 80.145 L 89.927 105.971 C 81.83 115.562 81.638 115.832 81.561 115.947 C 79.758 118.519 83.212 122.048 83.365 122.202 C 84.67 123.476 86.328 124.332 88.123 124.658 C 88.891 124.677 89.639 124.39 90.195 123.852 C 90.501 123.506 94.876 119.592 98.522 116.178 C 99.379 116.61 100.322 116.833 101.286 116.83 L 102.052 117.598 C 103.238 118.733 104.819 119.366 106.465 119.364 L 106.926 119.364 C 108.193 119.243 109.202 118.25 109.344 116.983 C 109.447 115.187 108.811 113.426 107.579 112.11 L 106.811 111.343 C 106.83 111.139 106.83 110.935 106.811 110.728 C 106.753 109.981 106.542 109.247 106.197 108.58 L 113.872 100.215 C 114.946 99.14 114.984 97.604 113.872 95.724 C 113.411 94.887 112.844 94.112 112.183 93.422 C 110.955 92.164 109.353 91.341 107.617 91.082 C 107.015 91.109 106.431 91.293 105.929 91.619 C 105.929 91.619 105.544 91.888 95.953 99.983 C 90.31 93.767 74.194 76.192 70.165 71.817 C 70.165 71.357 70.165 70.82 70.356 70.475 C 70.51 69.623 70.237 68.748 69.627 68.133 L 69.205 67.712 L 69.857 63.567 C 69.972 62.742 69.704 61.909 69.128 61.303 L 68.245 60.46 L 54.968 47.259 C 54.596 46.895 54.132 46.641 53.626 46.53 C 53.514 46.023 53.261 45.555 52.897 45.186 L 52.129 44.418 C 51.626 43.928 50.95 43.65 50.248 43.65 L 49.98 43.65 L 47.179 40.849 L 39.811 33.521 C 34.4 28.148 29.488 25.386 25.153 25.386 Z" transform="matrix(-0.707107, 0.707107, -0.707107, -0.707107, 164.070724, 82.084564)"/>
  <path class="cls-3" d="M 112.997 70.714 C 112.997 70.714 104.056 63.037 99.529 58.702 C 96.85 55.774 93.596 53.437 89.973 51.833 C 90.74 56.514 91.623 63.652 90.356 65.608 C 88.861 67.371 87.203 68.99 85.406 70.444 C 85.79 70.827 86.134 71.25 86.557 71.633 C 91.123 76.199 97.801 84.334 97.801 84.334 L 109.926 96.461 C 113.557 89.431 115.663 81.717 116.105 73.821 L 112.997 70.714 Z" transform="matrix(-0.707107, 0.707107, -0.707107, -0.707107, 224.430252, 55.331947)"/>
  <path class="cls-3" d="M 44.711 63.292 L 43.253 61.871 L 43.56 59.914 C 42.175 61.07 41.009 62.458 40.106 64.019 C 39.22 66.23 38.741 68.582 38.687 70.966 L 39.608 70.966 C 40.259 71.618 54.266 84.435 63.592 92.992 L 65.357 89.155 C 56.876 79.868 44.98 66.899 44.328 66.13 C 44.366 65.21 44.711 63.292 44.711 63.292 Z" transform="matrix(-0.707107, 0.707107, -0.707107, -0.707107, 142.867538, 93.728325)"/>
  <rect class="cls-2" x="117.999" y="101.729" width="0.921" height="27.629" transform="matrix(0, 1, -1, 0, 131.375061, -38.067875)"/>
  <path class="cls-2" d="M 95.522 71.092 L 97.211 69.404 L 92.412 64.608 C 92.052 65.026 92.052 65.647 92.412 66.066 L 94.562 68.253 L 93.526 69.288 L 95.522 71.092 Z" transform="matrix(-0.707107, 0.707107, -0.707107, -0.707107, 209.600082, 48.880806)"/>
  <polygon class="cls-2" points="67.586 67.371 68.43 68.214 73.956 67.371 73.189 66.564 67.586 67.371" transform="matrix(-0.707107, 0.707107, -0.707107, -0.707107, 168.464874, 64.997566)"/>
  <rect class="cls-2" x="44.858" y="65.312" width="1.956" height="5.795" rx="0.25" ry="0.25" transform="matrix(0, 1, -1, 0, 168.87439, 16.688774)"/>
  <path class="cls-2" d="M 115.963 70.297 L 113.316 67.689 C 113.316 67.689 113.316 67.689 113.316 67.689 L 111.167 69.799 C 110.335 70.639 110.335 71.993 111.167 72.83 L 112.317 73.944 L 115.963 70.297 Z" transform="matrix(-0.707107, 0.707107, -0.707107, -0.707107, 243.40979, 40.809368)"/>
  <path class="cls-2" d="M 115.718 68.549 L 116.523 67.743 L 113.606 64.98 L 111.957 64.328 C 112.985 65.7 114.125 66.986 115.374 68.165 L 115.718 68.549 Z" transform="matrix(-0.707107, 0.707107, -0.707107, -0.707107, 241.998993, 32.637741)"/>
  <path class="cls-2" d="M 97.942 83.054 L 96.216 84.742 L 91.42 79.907 C 91.831 79.526 92.468 79.526 92.878 79.907 L 94.873 81.903 L 95.948 81.213 L 97.942 83.054 Z" transform="matrix(-0.707107, 0.707107, -0.707107, -0.707107, 219.74176, 73.343224)"/>
  <rect class="cls-3" x="50.882" y="68.037" width="4.528" height="1.151" transform="matrix(0, 1, -1, 0, 163.827454, 14.246698)"/>
  <rect class="cls-3" x="61.627" y="57.291" width="4.528" height="1.151" transform="matrix(0, 1, -1, 0, 153.055206, 18.723831)"/>
  <polygon class="cls-2" points="70.724 79.454 71.569 80.298 70.686 85.823 69.918 85.057 70.724 79.454" transform="matrix(-0.707107, 0.707107, -0.707107, -0.707107, 179.200958, 91.049538)"/>
  <rect class="cls-2" x="62.509" y="47.66" width="1.956" height="5.795" rx="0.25" ry="0.25" transform="matrix(0, -1, 1, 0, 50.081219, 151.002655)"/>
  <path class="cls-2" d="M 112.709 81.918 L 110.099 79.271 L 112.248 77.121 C 113.061 76.268 114.424 76.268 115.242 77.121 L 116.392 78.233 L 112.709 81.918 Z" transform="matrix(-0.707107, 0.707107, -0.707107, -0.707107, 249.324753, 55.125553)"/>
  <path class="cls-2" d="M 116.37 84.886 L 115.564 85.69 L 112.801 82.927 L 112.11 81.161 C 113.457 82.205 114.739 83.334 115.948 84.54 L 116.37 84.886 Z" transform="matrix(-0.707107, 0.707107, -0.707107, -0.707107, 254.01062, 61.63636)"/>
  <circle class="cls-2" cx="15.83" cy="17.06" r="3.185" transform="matrix(-0.707107, 0.707107, -0.707107, -0.707107, 115.3144, 75.869736)"/>
  <rect class="cls-2" x="50.231" y="64.966" width="21.068" height="0.959" transform="matrix(-0.305529, 0.952183, -0.952183, -0.305529, 172.944519, 37.1479)"/>
  <polygon class="cls-2" points="62.145 112.172 101.055 92.178 102.514 95.017 65.559 114.014 62.145 112.172" transform="matrix(-0.707107, 0.707107, -0.707107, -0.707107, 213.445129, 117.780136)"/>
  <polygon class="cls-2" points="71.691 124.028 73.15 126.867 76.796 126.177 75.337 123.337 71.691 124.028" transform="matrix(-0.707107, 0.707107, -0.707107, -0.707107, 215.202057, 161.064392)"/>
  <polygon class="cls-2" points="121.931 37.822 83.02 57.854 81.561 54.976 118.476 35.98 121.931 37.822" transform="matrix(-0.707107, 0.707107, -0.707107, -0.707107, 206.866608, 8.147043)"/>
  <polygon class="cls-2" points="112.429 26.023 110.97 23.144 107.286 23.835 108.783 26.674 112.429 26.023" transform="matrix(-0.707107, 0.707107, -0.707107, -0.707107, 205.15181, -35.158665)"/>
  <rect class="cls-2" x="50.231" y="64.966" width="21.068" height="0.959" transform="matrix(0.952183, 0.305529, -0.305529, 0.952183, 54.205616, -5.886809)"/>
  <polygon class="cls-2" points="129.217 104.918 109.224 65.97 112.064 64.511 131.06 101.465 129.217 104.918" transform="matrix(-0.707107, 0.707107, -0.707107, -0.707107, 264.997406, 59.663475)"/>
  <polygon class="cls-2" points="141.085 95.363 143.925 93.905 143.235 90.26 140.397 91.719 141.085 95.363" transform="matrix(-0.707107, 0.707107, -0.707107, -0.707107, 308.311646, 57.916134)"/>
  <polygon class="cls-2" points="54.82 45.114 74.849 84.025 71.972 85.484 53.016 48.528 54.82 45.114" transform="matrix(-0.707107, 0.707107, -0.707107, -0.707107, 155.312973, 66.265259)"/>
  <polygon class="cls-2" points="43.069 54.634 40.19 56.093 40.881 59.738 43.721 58.28 43.069 54.634" transform="matrix(-0.707107, 0.707107, -0.707107, -0.707107, 112.059128, 67.955589)"/>
  <path class="cls-2" d="M 118.342 67.478 L 117.344 68.475 C 116.304 69.7 115.591 71.167 115.272 72.735 L 117.997 74.002 C 118.1 73.482 118.369 73.011 118.764 72.658 C 119.34 72.006 120.26 71.085 121.105 70.279 L 118.342 67.478 Z" transform="matrix(-0.707107, 0.707107, -0.707107, -0.707107, 251.781128, 37.188839)"/>
  <path class="cls-2" d="M 115.63 78.536 L 114.823 79.535 L 117.586 82.299 L 119.966 79.919 C 120.326 79.542 120.794 79.29 121.308 79.189 L 120.08 76.464 C 118.434 76.738 116.895 77.455 115.63 78.536 Z" transform="matrix(-0.707107, 0.707107, -0.707107, -0.707107, 257.68161, 52.027782)"/>
  <path class="cls-2" d="M 117.977 72.674 L 117.019 73.633 L 116.097 74.592 L 118.859 77.355 L 119.781 76.396 L 120.74 75.475 L 117.977 72.674 Z" transform="matrix(-0.707107, 0.707107, -0.707107, -0.707107, 255.196289, 44.323242)"/>
  <path class="cls-2" d="M 25.153 28.034 C 28.222 28.034 32.367 29.838 37.969 35.401 L 49.481 46.914 L 50.171 46.183 L 50.939 46.951 L 50.248 47.642 L 52.32 49.752 L 53.011 49.023 L 66.289 62.262 L 67.132 63.144 L 66.25 68.595 L 67.632 69.976 C 67.632 69.976 67.324 71.817 67.248 72.699 C 68.207 73.659 95.606 103.59 95.606 103.59 L 107.348 93.729 C 108.366 94.005 109.294 94.55 110.034 95.303 C 110.878 96.146 112.03 98.027 111.684 98.372 C 111.34 98.718 102.475 108.58 102.475 108.58 L 103.625 109.732 C 104.095 110.478 104.182 111.407 103.856 112.225 L 105.583 113.952 C 106.278 114.716 106.635 115.725 106.581 116.753 L 106.35 116.753 C 105.411 116.741 104.508 116.389 103.818 115.756 L 102.052 114.029 C 101.796 114.178 101.5 114.247 101.208 114.22 C 100.629 114.235 100.057 114.089 99.559 113.798 L 98.445 112.647 C 98.445 112.647 88.507 121.511 88.2 121.857 L 88.009 121.857 C 86.923 121.546 85.932 120.962 85.13 120.169 C 84.285 119.325 83.365 117.673 83.634 117.328 C 83.902 116.983 93.687 105.586 93.687 105.586 C 93.687 105.586 63.756 78.187 62.988 77.228 C 62.106 77.228 60.264 77.613 60.264 77.613 L 58.883 76.231 L 53.434 77.074 L 52.59 76.231 L 39.312 62.991 L 40.042 62.262 L 37.969 60.19 L 37.24 60.92 L 36.511 60.152 L 37.201 59.461 L 25.689 47.949 C 15.865 38.355 17.401 32.868 20.125 30.144 C 21.441 28.786 23.257 28.022 25.153 28.034 M 25.153 25.386 C 19.082 25.442 14.504 30.916 15.52 36.898 C 16.779 41.941 19.58 46.464 23.541 49.829 L 33.671 59.96 C 33.571 60.769 33.852 61.58 34.439 62.147 L 35.168 62.915 C 35.547 63.284 36.028 63.538 36.55 63.645 C 36.637 64.155 36.875 64.624 37.24 64.986 L 50.402 78.226 L 51.246 79.069 C 51.745 79.566 52.421 79.837 53.126 79.837 L 53.549 79.837 L 57.654 79.185 L 58.077 79.607 C 58.576 80.102 59.251 80.375 59.957 80.375 L 60.417 80.375 L 61.761 80.145 L 89.927 105.971 C 81.83 115.562 81.638 115.832 81.561 115.947 C 79.758 118.519 83.212 122.048 83.365 122.202 C 84.67 123.476 86.328 124.332 88.123 124.658 C 88.891 124.677 89.639 124.39 90.195 123.852 C 90.501 123.506 94.876 119.592 98.522 116.178 C 99.379 116.61 100.322 116.833 101.286 116.83 L 102.052 117.598 C 103.238 118.733 104.819 119.366 106.465 119.364 L 106.926 119.364 C 108.193 119.243 109.202 118.25 109.344 116.983 C 109.447 115.187 108.811 113.426 107.579 112.11 L 106.811 111.343 C 106.83 111.139 106.83 110.935 106.811 110.728 C 106.753 109.981 106.542 109.247 106.197 108.58 L 113.872 100.215 C 114.946 99.14 114.984 97.604 113.872 95.724 C 113.411 94.887 112.844 94.112 112.183 93.422 C 110.955 92.164 109.353 91.341 107.617 91.082 C 107.015 91.109 106.431 91.293 105.929 91.619 C 105.929 91.619 105.544 91.888 95.953 99.983 C 90.31 93.767 74.194 76.192 70.165 71.817 C 70.165 71.357 70.165 70.82 70.356 70.475 C 70.51 69.623 70.237 68.748 69.627 68.133 L 69.205 67.712 L 69.857 63.567 C 69.972 62.742 69.704 61.909 69.128 61.303 L 68.245 60.46 L 54.968 47.259 C 54.596 46.895 54.132 46.641 53.626 46.53 C 53.514 46.023 53.261 45.555 52.897 45.186 L 52.129 44.418 C 51.626 43.928 50.95 43.65 50.248 43.65 L 49.98 43.65 L 47.179 40.849 L 39.811 33.521 C 34.4 28.148 29.488 25.386 25.153 25.386 Z" transform="matrix(-0.707107, 0.707107, -0.707107, -0.707107, 164.070724, 82.084564)"/>
  <circle class="cls-4" cx="15.83" cy="17.06" r="54.989" transform="matrix(-0.707107, 0.707107, -0.707107, -0.707107, 115.3144, 75.869736)"/>
</svg>
