<?xml version="1.0" encoding="utf-8"?>
<svg viewBox="0 0 150 150" width="150" height="150" xmlns="http://www.w3.org/2000/svg">
  <defs>
    <style>.cls-1{fill:#dbcf9e;}.cls-2{fill:#596b6a;}.cls-3{fill:none;stroke:#ede2b2;stroke-miterlimit:10;stroke-width:.937;}</style>
  </defs>
  <path class="cls-1" d="M 96.343 74.039 C 96.006 74.036 95.683 73.904 95.436 73.676 L 94.528 72.731 C 94.022 72.245 94.022 71.438 94.528 70.952 L 95.108 70.371 L 94.309 69.717 L 72.88 48.288 C 71.991 47.413 71.257 46.392 70.701 45.273 C 69.866 43.458 70.447 42.477 70.701 42.077 C 71.104 41.674 71.661 41.464 72.226 41.496 C 74.061 41.779 75.735 42.706 76.949 44.112 L 98.378 65.54 C 98.602 65.751 98.81 65.984 98.994 66.231 L 99.612 65.613 C 99.844 65.384 100.157 65.254 100.484 65.249 C 100.898 65.239 101.297 65.414 101.574 65.722 L 102.482 66.666 C 102.986 67.153 102.986 67.959 102.482 68.446 L 101.101 69.789 C 101.297 70.519 101.105 71.3 100.592 71.86 C 100.187 72.255 99.634 72.463 99.067 72.441 L 98.523 72.441 L 97.142 73.822 C 96.91 74.05 96.597 74.181 96.271 74.184 L 96.343 74.039 Z" transform="matrix(-0.707107, 0.707107, -0.707107, -0.707107, 188.670853, 37.526779)"/>
  <path class="cls-2" d="M 72.416 42.807 C 73.836 43.149 75.111 43.94 76.048 45.059 L 97.477 66.488 C 98.003 67.012 98.479 67.582 98.893 68.195 L 100.491 66.597 L 101.436 67.505 L 99.547 69.394 C 99.801 70.084 99.838 70.665 99.547 70.956 C 99.376 71.104 99.154 71.184 98.93 71.173 C 98.614 71.163 98.304 71.086 98.022 70.956 L 96.133 72.844 L 95.189 71.936 L 96.787 70.302 C 96.187 69.898 95.628 69.433 95.116 68.921 L 73.796 47.638 C 71.98 45.822 71.071 43.825 71.762 43.171 C 71.933 43.021 72.154 42.942 72.379 42.952 M 72.416 40.374 C 71.522 40.352 70.658 40.693 70.019 41.318 C 68.852 42.596 68.678 44.492 69.582 45.967 C 70.211 47.224 71.046 48.365 72.053 49.345 L 93.263 70.555 C 92.591 71.555 92.711 72.891 93.554 73.753 L 94.498 74.697 C 94.971 75.168 95.61 75.43 96.278 75.423 C 96.943 75.423 97.582 75.161 98.058 74.697 L 99.002 73.753 C 100.999 73.835 102.59 72.104 102.343 70.12 L 103.287 69.176 C 103.771 68.707 104.043 68.068 104.05 67.396 C 104.037 66.728 103.763 66.089 103.287 65.616 L 102.38 64.709 C 101.519 63.865 100.182 63.746 99.184 64.417 L 77.972 43.28 C 76.506 41.703 74.544 40.679 72.416 40.374 Z" transform="matrix(-0.707107, 0.707107, -0.707107, -0.707107, 188.653519, 37.653286)"/>
  <path class="cls-1" d="M 96.184 107.613 C 95.849 107.613 95.533 107.468 95.312 107.214 L 94.368 106.306 C 93.902 105.804 93.902 105.031 94.368 104.526 L 94.985 103.909 C 94.738 103.723 94.51 103.516 94.294 103.292 L 72.865 81.863 C 71.435 80.667 70.495 78.986 70.215 77.141 C 70.24 76.621 70.462 76.128 70.832 75.761 C 71.228 75.372 71.77 75.165 72.321 75.179 C 74.166 75.459 75.848 76.4 77.043 77.831 L 98.472 99.259 L 99.09 99.913 L 99.706 99.333 C 99.94 99.104 100.251 98.973 100.579 98.969 C 100.92 98.966 101.246 99.096 101.487 99.333 L 102.394 100.277 C 102.921 100.742 102.921 101.559 102.394 102.02 L 101.05 103.4 C 101.239 104.142 101.032 104.923 100.506 105.471 C 100.11 105.863 99.572 106.069 99.017 106.051 L 98.436 106.051 L 97.055 107.395 C 96.808 107.585 96.492 107.661 96.184 107.613 Z" transform="matrix(-0.707107, 0.707107, -0.707107, -0.707107, 212.299805, 94.867882)"/>
  <path class="cls-2" d="M 72.473 76.367 C 73.893 76.708 75.165 77.497 76.106 78.619 L 97.535 100.048 C 98.08 100.552 98.556 101.127 98.951 101.755 L 100.549 100.121 L 101.493 101.065 L 99.605 102.954 C 99.859 103.644 99.895 104.188 99.605 104.516 C 99.434 104.664 99.213 104.74 98.988 104.733 C 98.661 104.722 98.342 104.646 98.043 104.516 L 96.154 106.404 L 95.21 105.46 L 96.844 103.862 C 96.217 103.462 95.642 102.987 95.138 102.445 L 73.709 81.016 C 71.929 79.237 71.02 77.384 71.674 76.585 C 71.845 76.433 72.063 76.356 72.292 76.367 M 72.292 73.861 C 71.399 73.835 70.534 74.178 69.895 74.805 C 68.788 76.131 68.696 78.031 69.677 79.454 C 70.284 80.711 71.108 81.855 72.111 82.832 L 93.358 104.079 C 92.653 105.071 92.777 106.425 93.648 107.275 L 94.556 108.221 C 95.551 109.237 97.19 109.237 98.189 108.221 L 99.133 107.275 C 100.03 107.275 100.89 106.923 101.53 106.295 C 102.144 105.62 102.482 104.737 102.475 103.825 L 103.419 102.881 C 104.435 101.882 104.435 100.244 103.419 99.249 L 102.475 98.341 C 102.014 97.851 101.366 97.574 100.694 97.579 C 100.182 97.579 99.685 97.742 99.278 98.05 L 78.031 76.804 C 76.582 75.173 74.598 74.115 72.437 73.825 L 72.292 73.861 Z" transform="matrix(-0.707107, 0.707107, -0.707107, -0.707107, 212.4505, 94.808121)"/>
  <path class="cls-1" d="M 99.267 120.884 C 98.867 120.884 98.49 120.696 98.25 120.377 L 97.124 118.887 C 96.838 118.459 96.838 117.899 97.124 117.471 L 98.105 115.873 L 91.894 109.989 C 85.186 107.265 78.946 103.502 73.407 98.839 L 58.08 83.512 L 55.828 85.617 C 55.603 85.833 55.301 85.948 54.993 85.945 L 54.484 85.945 L 54.013 85.727 L 53.504 86.126 C 53.031 86.563 52.305 86.563 51.833 86.126 L 33.673 67.784 C 33.106 67.272 32.78 66.55 32.765 65.788 C 32.765 65.424 32.837 65.068 32.982 64.734 L 30.803 62.59 L 30.332 62.59 C 29.917 62.577 29.529 62.376 29.278 62.046 L 24.956 55.726 C 24.592 55.254 24.592 54.6 24.956 54.128 L 26.736 52.385 C 25.152 50.986 23.696 49.457 22.377 47.808 L 22.341 47.446 C 20.637 45.505 19.868 42.92 20.235 40.362 C 20.986 38.736 22.09 37.298 23.467 36.15 C 24.604 34.788 26.031 33.698 27.643 32.954 C 28.101 32.899 28.566 32.899 29.024 32.954 C 31.112 33.114 33.103 33.913 34.727 35.242 L 35.089 35.496 C 36.713 36.829 38.231 38.285 39.629 39.855 L 41.409 38.112 C 41.631 37.868 41.95 37.737 42.28 37.748 C 42.539 37.748 42.793 37.824 43.007 37.965 L 49.109 42.143 C 49.476 42.379 49.683 42.797 49.654 43.232 L 49.654 43.668 L 51.797 45.811 C 52.853 45.354 54.088 45.634 54.848 46.501 L 73.19 64.661 C 73.651 65.152 73.651 65.914 73.19 66.404 L 72.79 66.913 L 72.971 67.349 C 73.186 67.799 73.099 68.333 72.753 68.692 L 70.646 70.98 L 85.937 86.271 C 90.627 91.807 94.393 98.061 97.088 104.796 L 100.429 108.173 C 105.732 104.541 108.457 102.544 109.037 102.18 C 109.47 101.929 109.956 101.795 110.453 101.781 C 111.26 101.831 112.008 102.213 112.524 102.834 L 112.814 103.088 C 113.563 103.593 114.071 104.381 114.231 105.267 C 114.297 105.837 114.111 106.407 113.723 106.829 C 113.323 107.338 108.819 112.385 106.205 115.328 C 105.877 117.471 105.442 117.907 105.223 118.088 C 105.006 118.27 104.498 118.815 102.1 119.105 L 100.03 120.703 C 99.798 120.838 99.533 120.904 99.267 120.884 Z" transform="matrix(-0.707107, 0.707107, -0.707107, -0.707107, 169.085037, 83.762955)"/>
  <path class="cls-2" d="M 29.177 34.058 C 31.163 34.272 33.033 35.082 34.552 36.382 C 34.915 36.6 37.203 38.852 39.782 41.467 L 42.433 38.815 L 48.571 42.993 L 48.571 43.973 L 51.912 47.314 L 52.095 47.133 C 52.345 46.85 52.698 46.68 53.075 46.66 C 53.515 46.686 53.925 46.897 54.201 47.242 L 72.361 65.402 L 71.49 66.491 L 71.998 67.654 L 69.056 70.814 L 85.219 86.94 C 89.751 92.403 93.423 98.526 96.115 105.1 L 100.365 109.422 C 103.269 107.352 108.972 103.356 109.771 102.885 C 110 102.735 110.265 102.663 110.534 102.667 C 111.152 102.667 111.587 103.247 112.096 103.648 C 112.604 104.046 113.476 104.918 112.858 105.644 L 105.231 114.725 C 105.187 115.571 104.966 116.403 104.577 117.158 C 103.72 117.555 102.798 117.787 101.854 117.848 L 99.492 119.665 L 98.33 118.176 L 99.819 115.706 L 92.846 108.842 C 86.202 106.179 80.018 102.503 74.504 97.945 L 58.342 81.782 L 55.255 84.579 L 54.092 84.07 L 53.003 84.942 L 34.661 66.783 C 34.01 66.231 34.01 65.224 34.661 64.676 L 34.879 64.494 L 31.537 61.188 L 30.557 61.188 L 26.198 55.014 L 28.849 52.4 C 26.198 49.785 24.019 47.533 23.801 47.169 C 22.195 45.4 21.393 43.047 21.586 40.668 C 22.341 39.298 23.325 38.071 24.492 37.036 C 25.53 35.867 26.757 34.886 28.123 34.13 L 29.213 34.13 M 29.213 31.624 C 28.657 31.567 28.098 31.567 27.542 31.624 C 25.599 32.435 23.889 33.72 22.566 35.366 C 20.983 36.615 19.737 38.234 18.934 40.087 C 18.538 43.044 19.454 46.029 21.441 48.259 L 21.695 48.586 C 22.773 49.995 23.989 51.299 25.327 52.472 L 24.455 53.344 C 23.605 54.187 23.482 55.52 24.164 56.503 L 28.341 62.641 C 28.806 63.328 29.584 63.738 30.411 63.732 L 31.646 64.966 C 31.646 64.966 31.646 65.257 31.646 65.366 C 31.581 66.564 32.045 67.733 32.918 68.562 L 51.077 86.722 C 51.542 87.202 52.189 87.462 52.858 87.449 C 53.391 87.452 53.914 87.285 54.347 86.976 C 54.601 87.009 54.855 87.009 55.11 86.976 C 55.749 86.98 56.362 86.733 56.816 86.286 L 58.197 85.016 L 72.725 99.543 C 78.354 104.341 84.718 108.206 91.574 110.984 L 96.805 116.105 L 96.332 116.904 C 95.759 117.757 95.759 118.879 96.332 119.737 L 97.495 121.19 C 97.971 121.807 98.711 122.171 99.492 122.171 C 100.04 122.156 100.571 121.978 101.017 121.662 L 102.834 120.245 C 105.376 119.882 106.066 119.229 106.466 118.938 C 107.192 118.062 107.625 116.985 107.701 115.851 L 114.965 107.57 C 115.55 106.883 115.837 105.994 115.764 105.1 C 115.56 103.873 114.881 102.776 113.875 102.05 L 113.657 102.05 C 112.909 101.203 111.845 100.702 110.715 100.669 C 109.997 100.669 109.292 100.869 108.681 101.251 C 108.101 101.613 105.449 103.43 100.836 106.662 L 98.439 104.193 C 95.675 97.404 91.851 91.103 87.107 85.523 L 72.579 70.995 L 73.85 69.615 C 74.471 68.954 74.682 68.007 74.395 67.145 C 75.143 66.15 75.053 64.76 74.177 63.877 L 56.017 45.716 C 55.269 44.899 54.219 44.428 53.112 44.41 L 52.421 44.41 L 51.186 43.174 C 51.194 42.342 50.784 41.565 50.097 41.104 L 43.85 36.746 C 43.432 36.458 42.938 36.306 42.433 36.31 C 41.769 36.313 41.133 36.571 40.654 37.036 L 39.782 37.908 C 38.595 36.596 37.308 35.384 35.933 34.275 L 35.605 34.021 C 33.76 32.569 31.519 31.708 29.177 31.552 L 29.213 31.624 Z" transform="matrix(-0.707107, 0.707107, -0.707107, -0.707107, 169.25351, 83.615891)"/>
  <path class="cls-2" d="M 117.02 68.224 L 119.382 70.549 L 117.674 72.255 C 117.14 71.751 116.73 71.13 116.476 70.44 C 116.298 69.656 116.501 68.834 117.02 68.224 Z" transform="matrix(-0.707107, 0.707107, -0.707107, -0.707107, 250.930252, 36.540279)"/>
  <path class="cls-2" d="M 117.82 67.048 L 119.018 67.048 C 119.098 67.516 119.298 67.952 119.599 68.318 L 119.127 68.827 C 118.571 68.333 118.128 67.727 117.82 67.048 Z" transform="matrix(-0.707107, 0.707107, -0.707107, -0.707107, 250.688858, 32.036274)"/>
  <path class="cls-2" d="M 122.617 67.542 L 122.617 67.178 L 122.327 66.924 C 121.786 66.753 121.201 66.753 120.656 66.924 L 121.746 69.067 L 123.016 69.067 C 122.752 68.606 122.614 68.079 122.617 67.542 Z" transform="matrix(-0.707107, 0.707107, -0.707107, -0.707107, 256.02179, 29.815048)"/>
  <path class="cls-2" d="M 115.862 78.224 L 118.15 80.621 L 119.857 78.914 C 119.349 78.369 118.713 77.958 118.005 77.715 C 117.253 77.533 116.458 77.722 115.862 78.224 Z" transform="matrix(-0.707107, 0.707107, -0.707107, -0.707107, 257.154999, 51.751072)"/>
  <path class="cls-2" d="M 117.7 80.667 L 117.7 81.866 C 118.186 81.942 118.641 82.156 119.007 82.484 L 119.516 81.975 C 119.011 81.416 118.39 80.968 117.7 80.667 Z" transform="matrix(-0.707107, 0.707107, -0.707107, -0.707107, 260.159119, 55.389568)"/>
  <path class="cls-2" d="M 121.448 82.284 L 121.085 82.284 L 120.83 81.993 C 120.66 81.448 120.66 80.868 120.83 80.322 L 122.973 81.412 L 122.973 82.683 C 122.501 82.44 121.982 82.306 121.448 82.284 Z" transform="matrix(-0.707107, 0.707107, -0.707107, -0.707107, 265.621033, 52.981171)"/>
  <path class="cls-2" d="M 120.652 68.297 C 120.064 68.984 119.751 69.866 119.781 70.766 C 119.792 71.264 119.955 71.748 120.253 72.147 L 121.052 72.147 C 120.917 71.203 121.255 70.251 121.96 69.605 L 120.652 68.297 Z" transform="matrix(-0.707107, 0.707107, -0.707107, -0.707107, 255.991608, 34.408802)"/>
  <path class="cls-2" d="M 124.179 73.455 L 122.835 72.074 C 122.395 72.415 121.982 72.794 121.601 73.201 L 119.893 74.907 C 119.519 75.274 119.166 75.662 118.84 76.069 L 120.184 77.413 L 124.179 73.455 Z" transform="matrix(-0.707107, 0.707107, -0.707107, -0.707107, 260.281311, 41.674946)"/>
  <path class="cls-2" d="M 121.364 78.092 C 120.478 78.1 119.621 78.405 118.931 78.964 L 120.239 80.308 C 120.885 79.603 121.837 79.265 122.781 79.4 L 122.781 78.565 C 122.359 78.278 121.869 78.115 121.364 78.092 Z" transform="matrix(-0.707107, 0.707107, -0.707107, -0.707107, 262.316956, 49.744762)"/>
  <circle class="cls-2" cx="16.52" cy="16.8" r="4.323" transform="matrix(-0.707107, 0.707107, -0.707107, -0.707107, 113.660591, 75.19799)"/>
  <polygon class="cls-2" points="112.343 122.279 108.819 68.707 112.778 68.453 115.502 110.076 113.069 110.221 113.868 122.207 112.343 122.279" transform="matrix(-0.707107, 0.707107, -0.707107, -0.707107, 258.9039, 83.490494)"/>
  <polygon class="cls-2" points="67.966 27.63 71.453 81.202 67.531 81.456 64.806 39.869 67.24 39.723 66.441 27.738 67.966 27.63" transform="matrix(-0.707107, 0.707107, -0.707107, -0.707107, 154.872055, 44.935894)"/>
  <polygon class="cls-2" points="143.018 79.745 94.894 55.991 96.637 52.432 134.047 70.883 132.958 73.062 143.709 78.365 143.018 79.745" transform="matrix(-0.707107, 0.707107, -0.707107, -0.707107, 250.392029, 28.461229)"/>
  <polygon class="cls-2" points="37.211 70.181 85.371 93.935 83.591 97.458 46.217 79.044 47.308 76.828 36.557 71.526 37.211 70.181" transform="matrix(-0.707107, 0.707107, -0.707107, -0.707107, 163.3414, 99.980782)"/>
  <polygon class="cls-2" points="119.897 30.781 75.259 60.6 73.045 57.296 107.73 34.16 109.074 36.157 119.062 29.511 119.897 30.781" transform="matrix(-0.707107, 0.707107, -0.707107, -0.707107, 196.545349, 8.699249)"/>
  <polygon class="cls-2" points="60.386 119.105 105.024 89.286 107.203 92.592 72.554 115.728 71.21 113.693 61.222 120.377 60.386 119.105" transform="matrix(-0.707107, 0.707107, -0.707107, -0.707107, 217.173233, 119.706902)"/>
  <rect class="cls-2" x="106.091" y="107.326" width="0.872" height="25.969" transform="matrix(0, 1, -1, 0, 135.58316, -40.544476)"/>
  <polygon class="cls-2" points="103.524 62.544 108.354 69.59 109.59 69.517 113.04 66.066 112.858 65.267 106.684 59.348 103.524 62.544" transform="matrix(-0.707107, 0.707107, -0.707107, -0.707107, 230.43541, 33.488525)"/>
  <polygon class="cls-2" points="106.201 80.298 112.92 84.91 112.847 86.072 109.542 89.377 108.816 89.195 103.187 83.348 106.201 80.298" transform="matrix(-0.707107, 0.707107, -0.707107, -0.707107, 244.448029, 68.42131)"/>
  <circle class="cls-3" cx="16.52" cy="16.8" r="57.205" transform="matrix(-0.707107, 0.707107, -0.707107, -0.707107, 113.660591, 75.19799)"/>
</svg>
